<svg xmlns="http://www.w3.org/2000/svg" xmlns:xlink="http://www.w3.org/1999/xlink" width="1366" zoomAndPan="magnify" viewBox="0 0 1024.5 202.499994" height="270" preserveAspectRatio="xMidYMid meet" version="1.0"><defs><g/></defs><g fill="#212121" fill-opacity="1"><g transform="translate(13.766571, 156.481531)"><g><path d="M 74.464844 -128.050781 C 74.464844 -123.449219 71.996094 -112.105469 70.023438 -108.160156 C 63.941406 -107.339844 57.695312 -105.367188 51.945312 -103.230469 C 45.367188 -100.765625 42.902344 -85.804688 40.929688 -79.558594 C 40.601562 -78.246094 40.109375 -77.09375 40.109375 -75.777344 C 40.109375 -74.136719 40.765625 -72.492188 42.738281 -72.492188 C 45.699219 -72.492188 56.382812 -77.585938 60.164062 -78.738281 C 59.011719 -72.492188 57.039062 -63.613281 54.082031 -58.027344 C 51.613281 -56.382812 48.984375 -55.394531 46.191406 -54.410156 C 45.367188 -55.230469 44.21875 -55.722656 43.066406 -55.722656 C 40.273438 -55.722656 35.835938 -52.109375 32.875 -51.121094 C 31.066406 -45.699219 24.984375 -27.285156 24.984375 -22.683594 C 24.984375 -21.039062 25.480469 -18.410156 27.453125 -18.410156 C 28.929688 -18.410156 46.355469 -23.011719 49.476562 -23.835938 C 48.984375 -21.535156 48.492188 -19.230469 47.667969 -16.929688 L 45.53125 -15.945312 C 44.21875 -12 43.230469 -7.890625 41.753906 -3.945312 C 34.027344 -1.480469 25.808594 1.152344 17.589844 1.644531 C 16.4375 0.65625 15.121094 0.328125 13.644531 0.328125 C 10.191406 0.328125 7.5625 2.792969 5.917969 5.589844 C 1.972656 6.246094 -1.972656 6.082031 -5.917969 6.902344 C -2.792969 -9.039062 1.972656 -24.65625 7.234375 -39.945312 C 9.699219 -40.765625 12.984375 -43.394531 12.984375 -46.191406 C 12.984375 -46.847656 12.65625 -47.667969 12.164062 -48.164062 C 13.644531 -52.929688 23.175781 -84.65625 23.175781 -86.957031 C 23.175781 -88.105469 22.027344 -88.601562 21.203125 -88.929688 C 23.835938 -98.460938 25.644531 -107.996094 28.929688 -117.367188 C 36.328125 -121.148438 44.875 -122.625 52.929688 -124.269531 C 53.09375 -123.285156 53.75 -122.460938 54.902344 -122.460938 C 56.875 -122.460938 59.175781 -124.597656 60.492188 -125.914062 C 65.257812 -126.40625 69.695312 -128.050781 74.464844 -128.050781 Z M 83.339844 -121.476562 L 82.519531 -121.640625 C 81.203125 -121.640625 79.722656 -121.3125 78.410156 -121.148438 C 79.066406 -124.597656 79.558594 -128.214844 79.558594 -131.667969 L 79.558594 -132.980469 L 78.246094 -132.980469 C 65.585938 -132.980469 36.328125 -126.078125 25.3125 -119.996094 C 21.203125 -109.148438 18.902344 -97.96875 15.945312 -86.792969 C 16.109375 -85.640625 16.601562 -84.65625 17.753906 -84.160156 C 14.136719 -70.847656 10.191406 -57.53125 6.246094 -44.382812 L 3.78125 -42.902344 C -2.300781 -27.121094 -9.535156 -3.617188 -11.671875 13.148438 C -7.726562 12 -3.453125 11.34375 0.65625 10.847656 C 0.164062 12.820312 -0.328125 14.957031 -0.65625 17.09375 C 4.109375 15.78125 9.207031 16.109375 13.972656 15.121094 C 15.121094 12.492188 17.09375 10.191406 20.054688 10.191406 C 21.203125 10.191406 22.847656 10.519531 23.671875 11.507812 C 32.546875 11.179688 41.585938 7.890625 49.972656 5.261719 C 51.78125 1.808594 51.613281 -2.628906 53.421875 -6.082031 C 54.246094 -7.5625 55.890625 -7.5625 56.546875 -9.039062 C 57.695312 -11.507812 58.027344 -15.121094 58.683594 -17.753906 L 51.613281 -16.109375 C 54.246094 -20.21875 54.410156 -25.3125 55.558594 -30.082031 C 48.984375 -28.4375 42.738281 -26.628906 36.164062 -24.984375 C 37.808594 -30.574219 39.449219 -36.328125 41.257812 -41.917969 C 43.066406 -42.574219 48.164062 -46.027344 49.3125 -46.027344 C 51.121094 -46.027344 51.449219 -44.710938 53.257812 -44.710938 C 54.410156 -44.710938 61.148438 -48.328125 62.464844 -49.148438 C 65.914062 -54.902344 68.21875 -66.082031 69.367188 -72.820312 C 67.230469 -72.164062 65.257812 -71.339844 63.121094 -70.519531 C 64.4375 -75.285156 65.257812 -80.050781 66.082031 -84.984375 C 61.3125 -83.667969 56.710938 -81.695312 52.109375 -79.886719 C 53.09375 -83.503906 55.394531 -92.214844 59.011719 -93.53125 C 62.300781 -94.847656 74.628906 -98.628906 77.75 -98.460938 C 80.546875 -102.242188 83.339844 -116.050781 83.339844 -120.984375 Z M 83.339844 -121.476562 "/></g></g></g><g fill="#212121" fill-opacity="1"><g transform="translate(73.103122, 156.481531)"><g><path d="M 47.011719 -39.285156 C 45.699219 -32.875 42.246094 -25.480469 36.820312 -21.699219 C 39.121094 -29.917969 38.792969 -35.175781 47.011719 -39.285156 Z M 58.355469 -95.667969 C 58.027344 -89.914062 55.230469 -83.667969 51.613281 -79.230469 C 52.601562 -83.175781 54.410156 -93.859375 58.355469 -95.667969 Z M 52.601562 -44.875 C 52.601562 -48.328125 51.285156 -51.449219 47.339844 -51.449219 C 42.574219 -51.449219 35.503906 -47.175781 32.546875 -43.558594 C 31.5625 -42.246094 25.148438 -21.203125 25.148438 -18.902344 L 25.148438 -18.082031 C 25.148438 -15.617188 26.792969 -14.464844 29.09375 -14.464844 C 41.257812 -14.464844 52.601562 -34.027344 52.601562 -44.875 Z M 62.300781 -99.449219 C 62.300781 -103.066406 61.148438 -106.515625 56.875 -106.515625 C 53.585938 -106.515625 49.972656 -105.367188 47.835938 -102.902344 C 45.863281 -100.601562 39.285156 -74.957031 39.285156 -71.503906 C 39.285156 -69.695312 40.273438 -68.546875 42.082031 -68.546875 C 53.09375 -68.546875 62.300781 -90.242188 62.300781 -99.449219 Z M 87.941406 -117.039062 C 87.941406 -116.050781 87.777344 -114.902344 87.777344 -113.914062 C 86.792969 -112.433594 85.148438 -109.96875 85.148438 -108.160156 C 85.148438 -107.011719 85.96875 -106.023438 86.957031 -105.53125 C 85.640625 -95.996094 80.050781 -80.546875 72.65625 -74.300781 C 71.339844 -73.148438 68.546875 -71.011719 68.546875 -69.039062 C 68.546875 -65.421875 78.902344 -68.21875 78.902344 -56.875 C 78.902344 -46.027344 72.65625 -43.230469 72.65625 -39.945312 C 72.65625 -38.300781 74.464844 -37.3125 75.777344 -36.820312 C 75.941406 -31.394531 65.585938 -15.289062 61.972656 -10.683594 C 58.355469 -6.082031 45.699219 -1.152344 39.945312 0.492188 C 32.054688 2.792969 23.835938 3.125 15.945312 4.765625 C 11.011719 5.753906 5.917969 6.410156 0.820312 6.410156 C -0.492188 6.410156 -1.644531 6.410156 -2.957031 6.246094 C -2.136719 -0.492188 0.492188 -6.902344 2.300781 -13.316406 C 3.617188 -14.464844 6.082031 -16.4375 6.082031 -18.410156 C 6.082031 -19.230469 5.589844 -19.890625 5.097656 -20.546875 C 6.246094 -27.617188 14.300781 -52.273438 14.300781 -54.902344 C 14.300781 -56.21875 13.808594 -57.039062 12.820312 -57.859375 C 12.984375 -60.492188 18.902344 -80.546875 20.21875 -83.011719 C 21.699219 -83.996094 23.339844 -85.476562 23.339844 -87.449219 C 23.339844 -88.765625 22.683594 -89.914062 22.027344 -90.902344 C 24.820312 -99.613281 26.464844 -108.488281 29.589844 -117.203125 C 39.78125 -120.984375 50.300781 -123.613281 60.984375 -125.585938 C 61.640625 -124.761719 61.972656 -123.613281 61.972656 -122.625 C 67.066406 -124.433594 75.449219 -126.242188 80.875 -126.242188 C 87.941406 -126.242188 87.941406 -123.121094 87.941406 -117.039062 Z M 96.984375 -109.804688 C 96.984375 -112.597656 96.324219 -118.847656 93.039062 -119.667969 C 92.875 -127.558594 92.050781 -131.339844 83.175781 -131.339844 C 77.421875 -131.339844 71.667969 -129.859375 66.246094 -128.542969 C 65.585938 -129.367188 64.4375 -130.679688 63.285156 -130.679688 C 57.695312 -130.679688 32.382812 -122.789062 26.136719 -120.324219 C 22.355469 -109.96875 20.054688 -99.285156 16.601562 -88.765625 C 16.765625 -87.777344 17.425781 -86.957031 18.246094 -86.464844 C 16.765625 -85.3125 15.617188 -83.667969 14.957031 -81.859375 C 13.480469 -77.75 8.054688 -58.027344 8.054688 -54.410156 L 8.054688 -54.082031 C 8.710938 -53.75 9.207031 -53.257812 9.207031 -52.4375 C 9.207031 -50.628906 6.574219 -43.890625 5.917969 -41.753906 C 3.453125 -33.367188 0.984375 -24.820312 -0.328125 -16.109375 C -3.78125 -12.492188 -7.890625 5.589844 -8.21875 10.847656 C -5.917969 11.34375 -3.453125 11.34375 -1.152344 11.34375 C 0.328125 11.34375 1.808594 11.34375 3.289062 11.179688 C 2.957031 12.65625 2.792969 14.300781 2.628906 15.945312 C 4.109375 16.273438 5.753906 16.273438 7.234375 16.273438 C 12.492188 16.273438 17.753906 15.453125 22.847656 14.464844 C 30.902344 12.820312 39.121094 12.492188 47.011719 10.191406 C 53.09375 8.382812 66.738281 2.957031 70.519531 -1.972656 C 74.136719 -6.738281 84.820312 -23.671875 84.820312 -29.09375 C 84.820312 -31.230469 81.53125 -30.574219 81.53125 -32.382812 C 81.53125 -34.519531 87.777344 -38.628906 87.777344 -49.148438 C 87.777344 -52.601562 87.121094 -56.21875 83.996094 -58.355469 C 83.996094 -61.148438 83.667969 -64.109375 82.1875 -66.574219 C 89.09375 -73.476562 94.847656 -88.929688 95.996094 -98.628906 C 94.847656 -99.285156 94.023438 -99.777344 94.023438 -101.257812 C 94.023438 -102.574219 96.984375 -104.875 96.984375 -109.804688 Z M 96.984375 -109.804688 "/></g></g></g><g fill="#212121" fill-opacity="1"><g transform="translate(155.286839, 156.481531)"><g><path d="M 60.984375 -90.738281 C 60.164062 -83.667969 56.546875 -73.96875 52.109375 -68.546875 C 53.421875 -73.804688 56.21875 -88.269531 60.984375 -90.738281 Z M 66.246094 -95.503906 C 66.246094 -99.285156 65.09375 -102.078125 60.984375 -102.078125 C 57.53125 -102.078125 53.09375 -100.601562 50.792969 -97.96875 C 48.164062 -94.847656 39.78125 -67.230469 39.78125 -62.628906 C 39.78125 -60.65625 40.765625 -59.503906 42.902344 -59.503906 C 56.054688 -59.503906 66.246094 -84.328125 66.246094 -95.503906 Z M 97.3125 -108.984375 C 97.3125 -99.941406 94.1875 -88.269531 90.078125 -80.21875 C 86.464844 -78.902344 83.667969 -77.09375 83.667969 -72.984375 C 83.667969 -71.832031 83.832031 -70.519531 83.339844 -69.367188 C 80.382812 -61.804688 65.585938 -53.917969 65.585938 -46.355469 C 65.585938 -39.449219 71.175781 -23.835938 73.476562 -16.765625 C 73.96875 -15.289062 75.941406 -8.875 75.941406 -7.5625 C 75.941406 -5.753906 66.410156 -2.792969 64.601562 -2.792969 C 63.285156 -3.617188 61.804688 -4.273438 60.328125 -4.273438 C 56.875 -4.273438 51.285156 -0.492188 48.492188 -0.492188 C 47.667969 -0.492188 46.027344 -8.546875 46.027344 -9.863281 C 46.027344 -11.835938 49.640625 -14.464844 49.640625 -16.765625 C 49.640625 -18.902344 45.699219 -19.398438 44.054688 -19.5625 C 41.421875 -23.339844 43.230469 -36.820312 38.136719 -36.820312 C 28.929688 -36.820312 27.78125 -1.480469 22.355469 4.765625 C 20.546875 6.902344 16.109375 6.082031 13.644531 6.574219 C 13.808594 5.425781 13.972656 2.957031 12.328125 2.957031 C 8.21875 2.957031 3.78125 6.082031 -0.492188 6.082031 C -1.808594 6.082031 -1.972656 5.917969 -1.972656 4.765625 C -1.972656 4.4375 -0.492188 1.152344 -0.328125 0.492188 C 0.65625 -2.464844 1.480469 -10.683594 3.125 -12.65625 C 6.902344 -17.261719 14.300781 -43.726562 14.300781 -49.808594 C 14.300781 -51.285156 13.148438 -51.78125 12.164062 -52.4375 C 14.300781 -62.464844 17.589844 -72.164062 20.21875 -82.1875 C 22.683594 -83.832031 25.480469 -86.132812 25.480469 -89.257812 C 25.480469 -91.066406 24.492188 -92.710938 23.671875 -94.351562 C 25.3125 -99.449219 27.121094 -104.875 28.273438 -110.132812 C 28.4375 -111.121094 28.929688 -114.570312 29.589844 -115.066406 C 31.394531 -116.542969 66.410156 -124.761719 70.519531 -124.929688 C 70.683594 -123.285156 71.011719 -122.460938 72.820312 -122.460938 C 77.257812 -122.460938 81.859375 -124.761719 86.464844 -124.761719 C 95.339844 -124.761719 97.3125 -116.214844 97.3125 -108.984375 Z M 106.1875 -103.722656 C 106.1875 -107.175781 104.710938 -112.765625 102.078125 -115.230469 C 101.914062 -123.285156 96.324219 -129.695312 88.105469 -129.695312 C 83.996094 -129.695312 79.722656 -128.378906 75.613281 -127.558594 C 75.285156 -128.871094 74.136719 -130.023438 72.65625 -130.023438 C 66.738281 -130.023438 36 -122.296875 29.917969 -119.832031 C 24.820312 -117.859375 24.328125 -113.585938 23.339844 -108.984375 C 22.027344 -103.230469 20.054688 -97.640625 18.246094 -92.050781 C 18.738281 -91.230469 20.382812 -88.929688 20.382812 -88.105469 C 20.382812 -86.628906 17.09375 -84.984375 16.109375 -84.328125 C 14.300781 -76.929688 7.066406 -56.054688 7.066406 -50.136719 C 7.066406 -48.820312 7.890625 -48 9.039062 -47.503906 C 8.054688 -42.738281 2.464844 -17.753906 0.65625 -15.617188 C -4.109375 -9.863281 -3.125 -5.261719 -5.261719 1.152344 C -5.917969 3.289062 -7.234375 5.425781 -7.234375 7.726562 C -7.234375 10.191406 -5.425781 11.179688 -3.125 11.179688 C -0.328125 11.179688 2.300781 10.355469 4.929688 9.535156 C 4.273438 11.011719 3.453125 12.820312 3.453125 14.464844 C 3.453125 15.78125 4.4375 15.945312 5.589844 15.945312 C 10.027344 15.945312 14.300781 12.820312 18.574219 12.820312 L 18.902344 12.820312 C 19.230469 12.984375 19.398438 13.480469 19.398438 13.808594 C 19.398438 14.300781 18.738281 16.601562 19.726562 16.601562 C 22.847656 16.601562 28.601562 15.945312 30.738281 13.316406 C 34.683594 8.382812 37.148438 -9.371094 38.957031 -16.273438 C 39.617188 -15.121094 41.917969 -14.136719 43.230469 -14.136719 C 43.394531 -14.136719 43.558594 -14.136719 43.726562 -14.136719 C 42.410156 -12 41.09375 -9.699219 41.09375 -7.234375 C 41.09375 -4.109375 42.082031 4.109375 46.027344 4.109375 C 48.164062 4.109375 50.300781 3.289062 52.273438 2.628906 C 52.601562 4.109375 53.09375 9.207031 55.230469 9.207031 C 57.53125 9.207031 63.613281 5.425781 67.558594 5.425781 C 69.695312 5.425781 69.695312 7.066406 71.339844 7.066406 C 73.96875 7.066406 84.820312 2.464844 84.820312 -0.328125 C 84.820312 -4.4375 81.203125 -12.492188 79.722656 -16.601562 C 77.914062 -22.027344 77.257812 -27.78125 75.613281 -33.203125 C 75.121094 -34.847656 74.136719 -36.328125 74.136719 -38.136719 C 74.136719 -45.367188 92.546875 -56.21875 92.546875 -62.957031 C 92.546875 -63.777344 92.214844 -64.765625 92.214844 -65.585938 C 92.214844 -69.53125 97.804688 -70.355469 98.460938 -71.175781 C 103.066406 -77.421875 106.1875 -95.832031 106.1875 -103.722656 Z M 106.1875 -103.722656 "/></g></g></g><g fill="#212121" fill-opacity="1"><g transform="translate(242.565976, 156.481531)"><g><path d="M 46.683594 -61.640625 C 46.355469 -58.683594 45.203125 -47.339844 43.726562 -45.53125 C 41.917969 -45.039062 40.273438 -44.546875 38.464844 -44.21875 C 41.09375 -50.136719 43.726562 -55.890625 46.683594 -61.640625 Z M 52.929688 -86.300781 C 52.929688 -87.941406 52.601562 -90.738281 50.300781 -90.738281 C 48 -90.738281 46.191406 -88.269531 45.203125 -86.628906 C 42.410156 -82.023438 24.820312 -41.585938 24.820312 -39.78125 C 24.820312 -38.136719 26.136719 -37.476562 27.617188 -37.476562 C 28.109375 -37.476562 28.601562 -37.644531 29.09375 -37.644531 C 32.710938 -38.136719 44.21875 -40.601562 46.519531 -42.902344 C 49.3125 -45.863281 51.945312 -60.820312 51.945312 -65.09375 C 51.945312 -65.585938 51.78125 -66.574219 50.957031 -66.574219 L 50.136719 -66.574219 C 50.957031 -72.984375 52.929688 -79.722656 52.929688 -86.300781 Z M 84.492188 -126.40625 C 83.667969 -114.242188 82.1875 -101.75 79.722656 -89.75 C 77.421875 -79.066406 75.449219 -68.382812 74.300781 -57.53125 L 76.601562 -58.191406 C 75.285156 -50.464844 74.300781 -42.902344 73.148438 -35.175781 L 69.203125 -31.230469 L 72.820312 -26.464844 C 71.832031 -19.5625 71.175781 -12.65625 69.53125 -5.917969 C 65.914062 -4.765625 62.136719 -3.78125 58.355469 -2.792969 C 57.53125 -3.453125 57.53125 -4.601562 57.203125 -5.425781 C 52.4375 -4.4375 47.503906 -2.957031 42.574219 -2.300781 C 43.726562 -7.066406 44.546875 -12.65625 44.546875 -17.589844 C 44.546875 -19.726562 44.054688 -21.535156 41.421875 -21.535156 C 37.476562 -21.535156 23.671875 -19.066406 19.890625 -17.753906 C 12 -14.957031 10.847656 -4.273438 8.054688 2.464844 C 1.808594 5.261719 -4.929688 6.574219 -11.671875 6.574219 C -6.738281 -4.4375 -1.644531 -15.453125 3.78125 -26.300781 L 0.984375 -27.121094 C 4.109375 -34.683594 25.808594 -84.492188 28.601562 -87.941406 C 29.753906 -89.257812 31.230469 -89.09375 32.710938 -91.066406 L 29.257812 -94.519531 C 33.367188 -103.230469 37.148438 -111.941406 42.246094 -119.996094 C 49.640625 -121.640625 57.203125 -122.957031 64.765625 -124.269531 C 64.273438 -123.121094 65.257812 -121.96875 65.75 -120.984375 C 71.011719 -121.96875 75.613281 -126.734375 83.667969 -126.570312 Z M 93.53125 -119.832031 C 93.039062 -119.996094 92.378906 -120.160156 91.722656 -120.160156 C 90.738281 -120.160156 89.75 -119.832031 88.765625 -119.667969 C 89.09375 -123.285156 89.585938 -126.898438 89.75 -130.515625 C 88.4375 -131.175781 86.957031 -131.339844 85.476562 -131.339844 C 80.21875 -131.339844 73.96875 -129.367188 69.367188 -126.734375 C 68.875 -128.214844 68.21875 -129.203125 66.574219 -129.203125 C 61.476562 -129.203125 46.027344 -125.585938 40.4375 -124.269531 C 33.203125 -114.40625 28.601562 -102.902344 23.339844 -91.886719 L 25.480469 -89.75 C 21.371094 -86.132812 -1.644531 -31.230469 -5.261719 -23.011719 L -2.792969 -22.355469 C -8.21875 -11.34375 -13.316406 0 -18.410156 11.179688 C -16.4375 11.34375 -14.136719 11.671875 -12.164062 11.671875 C -9.535156 11.671875 -6.902344 11.34375 -4.273438 10.847656 L -6.738281 16.4375 C -5.917969 16.4375 -5.261719 16.4375 -4.4375 16.4375 C 2.136719 16.4375 10.683594 14.792969 16.4375 11.671875 C 24.492188 -5.753906 17.09375 -6.902344 38.957031 -10.355469 C 38.464844 -7.234375 37.808594 -3.945312 37.808594 -0.820312 C 37.808594 0.492188 37.808594 1.808594 38.464844 2.957031 C 41.917969 2.628906 45.53125 1.972656 48.820312 0.820312 C 48.65625 2.792969 48.164062 5.097656 48.164062 7.066406 L 48.328125 7.726562 C 53.421875 7.234375 58.191406 5.753906 63.121094 4.601562 C 63.449219 5.917969 63.449219 7.066406 65.09375 7.066406 C 65.914062 7.066406 76.601562 3.78125 78.078125 3.289062 C 80.21875 -4.109375 80.710938 -11.835938 81.859375 -19.398438 L 78.738281 -23.507812 L 82.023438 -26.792969 C 83.175781 -35.175781 84.328125 -43.558594 85.804688 -51.945312 L 83.339844 -51.449219 C 84.492188 -61.804688 86.464844 -71.832031 88.601562 -82.023438 C 91.230469 -94.351562 92.875 -107.339844 93.53125 -119.832031 Z M 93.53125 -119.832031 "/></g></g></g><g fill="#212121" fill-opacity="1"><g transform="translate(325.242805, 156.481531)"><g><path d="M 101.914062 -131.667969 C 100.765625 -123.941406 97.804688 -116.542969 95.832031 -108.984375 C 93.695312 -100.929688 91.230469 -93.203125 89.09375 -85.148438 C 86.792969 -82.847656 84.984375 -78.574219 84.984375 -75.285156 C 84.984375 -73.96875 85.3125 -72.328125 86.792969 -71.667969 C 83.011719 -58.519531 78.902344 -45.367188 75.285156 -32.21875 C 73.476562 -30.738281 69.695312 -26.792969 69.695312 -24.328125 C 69.695312 -23.011719 71.011719 -22.847656 71.996094 -22.847656 L 72.820312 -22.847656 C 67.230469 -0.65625 71.996094 -6.246094 49.476562 -0.164062 C 48.164062 0.164062 46.355469 0.984375 45.039062 0.984375 C 44.875 0.984375 44.710938 0.984375 44.710938 0.820312 C 44.710938 -0.820312 50.792969 -25.480469 51.78125 -27.617188 C 52.929688 -30.246094 54.738281 -31.726562 54.738281 -34.847656 C 54.738281 -35.835938 54.574219 -36.984375 53.917969 -37.808594 C 54.082031 -40.765625 56.21875 -43.558594 56.21875 -46.683594 C 56.21875 -48 55.558594 -48.65625 54.246094 -48.65625 C 50.792969 -48.65625 46.027344 -46.191406 42.574219 -45.203125 C 38.464844 -44.054688 34.191406 -44.875 31.726562 -40.4375 C 25.148438 -28.765625 24.65625 -9.535156 19.066406 3.617188 C 15.617188 5.589844 11.835938 6.574219 8.054688 7.726562 L 8.546875 4.765625 C 4.4375 5.425781 0.328125 7.890625 -3.78125 8.054688 C -1.808594 -6.410156 2.957031 -20.382812 7.234375 -34.355469 C 8.710938 -36.164062 9.039062 -38.628906 10.683594 -40.4375 C 10.191406 -41.753906 13.480469 -52.765625 13.808594 -55.394531 L 12.328125 -56.875 C 13.480469 -64.601562 15.617188 -72.820312 18.246094 -80.050781 C 19.398438 -83.011719 23.671875 -86.628906 23.671875 -89.257812 C 23.671875 -90.574219 22.519531 -91.558594 21.535156 -92.214844 C 23.507812 -100.601562 25.808594 -108.984375 29.09375 -117.039062 C 35.175781 -119.832031 47.339844 -122.132812 54.082031 -122.957031 C 52.109375 -113.585938 43.066406 -87.285156 43.066406 -80.875 C 43.066406 -78.902344 44.054688 -78.574219 45.699219 -78.574219 C 46.847656 -78.574219 48.328125 -79.066406 49.476562 -79.394531 C 61.804688 -82.519531 64.273438 -81.367188 67.230469 -95.011719 C 69.203125 -96.492188 70.519531 -98.792969 70.519531 -101.421875 C 70.519531 -102.574219 70.355469 -103.886719 69.859375 -104.875 C 71.832031 -111.941406 73.804688 -118.847656 76.105469 -125.75 C 84.492188 -128.214844 93.203125 -130.679688 101.914062 -131.667969 Z M 110.957031 -125.257812 C 108.984375 -125.09375 106.847656 -124.761719 104.875 -124.433594 C 106.023438 -128.542969 107.011719 -132.652344 107.339844 -136.925781 C 95.503906 -135.941406 83.996094 -132.652344 72.65625 -129.367188 C 69.695312 -120.488281 66.902344 -111.449219 64.4375 -102.40625 C 64.929688 -101.75 65.585938 -100.765625 65.585938 -99.941406 C 65.585938 -98.628906 63.941406 -97.640625 62.957031 -97.148438 C 61.3125 -89.09375 63.941406 -87.613281 54.738281 -85.3125 C 57.53125 -95.503906 61.972656 -106.023438 63.121094 -116.707031 C 60.984375 -116.542969 59.011719 -116.050781 56.875 -115.722656 C 58.027344 -119.832031 59.011719 -124.105469 59.503906 -128.378906 C 48.492188 -127.230469 35.339844 -125.09375 25.644531 -119.667969 C 21.535156 -109.804688 18.574219 -99.613281 16.109375 -89.257812 L 18.246094 -87.285156 C 15.78125 -84.820312 14.464844 -82.683594 13.316406 -79.394531 C 12 -75.449219 7.234375 -57.039062 7.234375 -53.585938 L 8.546875 -52.4375 C 7.5625 -48.492188 6.246094 -44.382812 5.589844 -40.273438 C 4.601562 -38.628906 4.273438 -36.820312 2.957031 -35.503906 C -1.808594 -19.726562 -7.066406 -3.945312 -9.207031 12.492188 C -8.21875 12.820312 -7.066406 12.820312 -5.917969 12.820312 C -2.957031 12.820312 0 11.835938 2.792969 10.847656 C 2.300781 13.148438 1.972656 15.453125 1.644531 17.753906 C 1.972656 17.753906 2.464844 17.753906 2.792969 17.753906 C 6.246094 17.753906 10.519531 15.453125 13.972656 14.792969 C 13.808594 15.453125 13.644531 16.273438 13.644531 16.929688 C 13.644531 17.261719 13.644531 17.753906 14.136719 17.753906 C 16.273438 17.753906 25.480469 13.972656 27.453125 12.65625 C 33.039062 1.152344 35.339844 -24.164062 40.4375 -32.21875 C 42.246094 -35.011719 46.027344 -34.847656 48.820312 -35.339844 C 48.984375 -34.847656 49.640625 -33.367188 49.640625 -32.875 C 49.640625 -31.890625 48.65625 -30.738281 48.328125 -29.917969 C 46.191406 -25.972656 39.617188 -1.644531 39.617188 2.628906 C 39.617188 4.929688 42.410156 5.097656 44.054688 5.097656 C 46.519531 5.097656 48.984375 4.601562 51.285156 4.109375 C 50.792969 5.917969 50.136719 7.726562 50.136719 9.535156 C 50.464844 9.863281 51.285156 10.191406 51.78125 10.191406 C 55.722656 10.191406 72.492188 6.082031 75.449219 3.945312 C 77.09375 2.792969 81.695312 -12.492188 81.695312 -14.957031 C 81.695312 -16.601562 78.902344 -16.109375 78.902344 -17.753906 C 78.902344 -20.382812 83.339844 -22.519531 84.160156 -24.328125 C 85.96875 -28.4375 86.628906 -33.367188 87.941406 -37.644531 C 90.574219 -46.683594 93.367188 -55.890625 95.996094 -64.929688 C 94.351562 -64.601562 93.859375 -66.082031 93.859375 -67.394531 C 93.859375 -70.191406 95.667969 -74.628906 97.804688 -76.601562 C 99.941406 -84.820312 102.574219 -93.039062 104.710938 -101.257812 C 106.847656 -109.148438 110.296875 -117.039062 110.957031 -125.257812 Z M 110.957031 -125.257812 "/></g></g></g><g fill="#212121" fill-opacity="1"><g transform="translate(411.700092, 156.481531)"><g><path d="M 56.054688 -125.421875 C 53.257812 -112.105469 48.820312 -99.121094 45.367188 -85.96875 C 44.054688 -84.984375 42.574219 -83.996094 41.753906 -82.519531 C 40.4375 -80.546875 30.902344 -44.875 30.902344 -42.082031 C 30.902344 -41.09375 32.054688 -40.109375 32.875 -39.617188 C 29.421875 -26.628906 27.617188 -12.65625 22.519531 -0.164062 C 16.4375 2.136719 7.890625 4.601562 1.480469 4.601562 C 0.164062 4.601562 -1.316406 4.601562 -2.628906 4.109375 C -2.792969 3.945312 -2.957031 3.617188 -2.957031 3.289062 C -2.957031 0.164062 0.492188 -9.039062 1.644531 -12.492188 C 3.78125 -13.316406 6.902344 -15.121094 6.902344 -17.753906 C 6.902344 -19.398438 5.753906 -20.875 4.601562 -21.863281 C 6.246094 -31.726562 9.371094 -41.09375 11.835938 -50.792969 C 13.316406 -56.710938 14.464844 -62.628906 15.945312 -68.382812 C 16.765625 -71.503906 17.917969 -74.628906 18.738281 -77.75 C 19.726562 -82.023438 21.039062 -85.96875 22.027344 -90.242188 C 24.328125 -92.710938 27.945312 -96.984375 27.945312 -100.601562 C 27.945312 -101.914062 27.285156 -103.230469 26.136719 -103.886719 C 27.121094 -108.820312 28.601562 -114.738281 30.738281 -119.175781 C 33.535156 -119.503906 36.164062 -120.820312 38.957031 -121.3125 C 39.945312 -119.832031 41.753906 -119.339844 43.394531 -119.339844 C 46.519531 -119.339844 48.984375 -121.148438 50.464844 -123.777344 C 52.273438 -124.269531 54.246094 -124.929688 56.054688 -125.421875 Z M 64.929688 -117.859375 C 64.929688 -118.351562 64.765625 -118.679688 64.4375 -119.011719 C 62.464844 -118.515625 60.65625 -118.023438 58.683594 -117.53125 C 59.503906 -120.488281 60.820312 -123.613281 60.820312 -126.734375 C 60.820312 -128.214844 60.492188 -129.695312 59.175781 -130.679688 C 55.230469 -129.859375 51.285156 -128.707031 47.339844 -128.050781 C 47.011719 -126.898438 46.683594 -125.585938 46.027344 -124.433594 C 43.890625 -124.433594 43.394531 -124.929688 42.738281 -126.898438 C 39.121094 -126.078125 35.175781 -126.40625 31.5625 -125.585938 C 24.65625 -124.105469 21.699219 -106.1875 20.710938 -100.105469 C 21.535156 -99.777344 22.355469 -98.957031 22.355469 -97.96875 C 22.355469 -95.667969 19.066406 -92.710938 17.425781 -91.230469 C 16.765625 -86.300781 15.121094 -81.367188 13.808594 -76.601562 C 11.507812 -67.722656 9.207031 -58.683594 6.902344 -49.808594 C 4.4375 -39.945312 1.316406 -30.082031 -0.492188 -20.054688 L -0.492188 -19.398438 C -0.492188 -18.410156 0.492188 -17.425781 1.152344 -16.929688 L -2.136719 -15.121094 C -3.945312 -10.355469 -7.726562 2.957031 -7.726562 7.726562 C -7.726562 10.191406 -5.261719 9.699219 -3.289062 9.699219 C -0.984375 9.699219 1.316406 9.535156 3.617188 9.207031 C 3.453125 10.355469 3.125 11.34375 3.125 12.492188 C 3.125 14.464844 5.589844 14.300781 7.066406 14.300781 C 11.671875 14.300781 26.464844 12 30.082031 9.371094 C 31.394531 8.382812 31.394531 7.890625 31.726562 6.410156 C 35.175781 -6.574219 38.464844 -19.5625 41.917969 -32.546875 C 41.421875 -32.875 39.945312 -34.027344 39.945312 -34.683594 C 39.945312 -37.148438 49.476562 -72.984375 50.464844 -74.300781 C 51.449219 -75.613281 52.765625 -76.4375 53.917969 -77.421875 C 55.394531 -82.683594 64.929688 -115.558594 64.929688 -117.859375 Z M 64.929688 -117.859375 "/></g></g></g><g fill="#212121" fill-opacity="1"><g transform="translate(454.10672, 156.481531)"><g><path d="M 120.488281 -126.242188 C 116.542969 -112.929688 113.257812 -99.613281 109.3125 -86.464844 L 108.65625 -86.300781 C 107.667969 -85.640625 106.683594 -84.984375 106.023438 -83.832031 C 104.875 -81.367188 95.339844 -47.175781 95.339844 -45.203125 C 95.339844 -43.890625 96.160156 -43.230469 97.148438 -42.410156 C 93.695312 -29.753906 90.242188 -17.09375 86.957031 -4.4375 C 84.984375 -2.628906 81.203125 -2.300781 78.738281 -2.464844 L 76.105469 -2.628906 C 75.449219 -4.929688 71.667969 -4.929688 69.859375 -4.929688 C 68.21875 -4.929688 66.738281 -4.765625 65.09375 -4.765625 C 67.230469 -15.453125 70.519531 -25.972656 73.148438 -36.65625 C 75.777344 -40.4375 79.066406 -48.492188 79.066406 -53.09375 C 79.066406 -54.410156 78.738281 -56.382812 77.09375 -56.382812 C 72.820312 -56.382812 61.148438 -40.273438 61.148438 -36.164062 L 61.148438 -35.835938 C 52.601562 -25.644531 46.355469 -12.984375 39.121094 -1.644531 C 38.628906 -0.820312 37.476562 0.984375 36.328125 0.984375 C 34.027344 0.984375 34.191406 -12.65625 34.191406 -14.792969 C 34.191406 -17.425781 34.355469 -20.054688 34.355469 -22.683594 C 35.175781 -23.835938 36.328125 -25.3125 36.328125 -26.792969 C 36.328125 -28.601562 34.191406 -29.589844 32.710938 -29.917969 C 33.039062 -32.546875 33.863281 -46.683594 29.589844 -46.683594 C 27.121094 -46.683594 25.148438 -43.230469 24.492188 -41.257812 C 23.671875 -38.792969 23.175781 -36.164062 22.519531 -33.699219 C 19.398438 -22.027344 15.121094 -10.519531 12.164062 1.152344 C 10.027344 1.644531 8.054688 2.300781 5.917969 2.464844 L 4.4375 4.4375 C 1.316406 4.601562 -1.808594 5.097656 -4.929688 5.261719 L -5.097656 5.097656 C -5.097656 -0.65625 3.125 -24.984375 5.097656 -32.546875 C 6.410156 -37.148438 9.699219 -43.726562 9.699219 -48.328125 C 9.699219 -49.3125 9.371094 -50.464844 9.371094 -51.449219 C 9.371094 -52.765625 18.410156 -82.847656 19.5625 -86.628906 C 21.371094 -87.941406 24.164062 -90.574219 24.164062 -93.039062 C 24.164062 -94.519531 23.011719 -95.339844 21.699219 -95.667969 C 24.328125 -102.574219 22.683594 -115.886719 32.875 -115.886719 C 36.492188 -115.886719 40.273438 -115.230469 42.902344 -118.351562 C 47.339844 -119.175781 51.78125 -119.339844 56.21875 -119.339844 C 57.039062 -115.394531 56.546875 -110.460938 56.546875 -106.515625 C 56.546875 -104.378906 56.546875 -90.574219 56.21875 -89.257812 C 55.558594 -87.285156 53.75 -85.804688 53.421875 -83.832031 C 52.4375 -78.738281 52.765625 -72.328125 52.765625 -67.066406 C 52.765625 -65.09375 52.929688 -60.65625 55.722656 -60.65625 C 58.519531 -60.65625 65.914062 -77.585938 67.394531 -80.546875 C 69.367188 -84.160156 75.285156 -93.039062 75.285156 -96.492188 C 75.285156 -97.3125 74.957031 -97.96875 74.957031 -98.792969 C 74.957031 -101.09375 84.160156 -119.832031 85.804688 -120.488281 C 87.449219 -121.148438 89.09375 -121.148438 90.738281 -121.148438 C 95.175781 -121.148438 96.984375 -121.476562 100.105469 -125.09375 C 105.367188 -126.242188 110.957031 -127.230469 116.214844 -127.230469 C 117.367188 -127.230469 119.667969 -127.066406 120.488281 -126.242188 Z M 129.367188 -119.011719 C 129.367188 -119.832031 128.871094 -119.832031 128.214844 -119.832031 C 126.570312 -119.832031 124.929688 -119.832031 123.285156 -119.667969 C 124.105469 -122.460938 125.257812 -125.421875 125.257812 -128.378906 C 125.257812 -131.503906 123.941406 -131.832031 121.3125 -131.832031 C 114.902344 -131.832031 106.847656 -131.503906 100.765625 -129.859375 C 98.628906 -129.367188 96.984375 -127.886719 95.667969 -126.242188 C 92.546875 -125.75 88.765625 -126.078125 85.804688 -124.929688 C 80.710938 -122.957031 70.191406 -102.40625 70.191406 -96.984375 C 70.191406 -95.832031 70.519531 -94.847656 71.339844 -94.023438 C 70.519531 -92.875 69.367188 -92.214844 68.546875 -91.066406 C 67.230469 -89.257812 66.410156 -87.121094 65.257812 -85.3125 C 65.421875 -93.203125 65.421875 -101.09375 65.421875 -108.984375 C 65.421875 -109.96875 65.257812 -111.941406 63.941406 -112.105469 C 63.613281 -112.105469 63.449219 -112.105469 63.121094 -112.105469 L 61.476562 -112.105469 C 61.476562 -119.175781 63.449219 -124.269531 55.066406 -124.269531 C 50.957031 -124.269531 42.574219 -123.941406 39.617188 -120.820312 C 22.027344 -120.324219 21.371094 -115.722656 18.082031 -100.269531 C 17.753906 -98.296875 16.765625 -96.324219 16.765625 -94.351562 C 16.765625 -92.875 17.589844 -91.886719 18.738281 -91.066406 C 17.261719 -89.75 15.453125 -88.4375 14.628906 -86.464844 C 13.316406 -83.011719 4.273438 -51.78125 4.273438 -49.808594 C 4.273438 -48.820312 4.601562 -47.667969 4.601562 -46.683594 C 4.601562 -42.082031 1.316406 -36.65625 0 -32.054688 C -2.136719 -24.164062 -10.355469 -0.164062 -10.355469 6.082031 C -10.355469 9.039062 -8.382812 10.191406 -5.589844 10.191406 C -3.289062 10.191406 -0.984375 9.535156 1.316406 8.875 C 0.984375 10.355469 0.492188 12 0.492188 13.480469 C 0.492188 15.121094 1.152344 15.945312 2.792969 15.945312 C 5.917969 15.945312 8.875 14.792969 12.164062 14.792969 L 13.644531 12.820312 C 15.121094 12.65625 18.246094 12.492188 19.5625 11.835938 C 20.875 11.179688 21.203125 9.699219 21.535156 8.382812 C 23.835938 -0.328125 26.464844 -9.039062 29.09375 -17.589844 C 29.09375 -11.507812 28.765625 -5.097656 29.917969 0.984375 C 30.410156 3.617188 32.710938 5.917969 35.503906 5.917969 C 37.3125 5.917969 38.792969 4.929688 40.109375 3.78125 C 40.273438 5.753906 40.765625 11.179688 43.394531 11.179688 C 45.367188 11.179688 47.011719 9.039062 47.835938 7.5625 C 52.765625 -0.164062 57.53125 -8.382812 62.628906 -16.109375 C 61.640625 -12.492188 59.503906 -7.066406 59.503906 -3.453125 C 59.503906 0.492188 63.613281 0.65625 66.738281 0.65625 C 68.21875 0.65625 69.53125 0.65625 71.011719 0.492188 C 70.683594 1.808594 70.191406 3.125 70.191406 4.4375 C 70.191406 6.410156 71.667969 6.410156 73.148438 6.410156 C 75.449219 6.410156 77.585938 5.917969 79.886719 5.917969 C 82.847656 5.917969 80.382812 7.890625 83.011719 7.890625 C 84.820312 7.890625 93.203125 6.902344 94.519531 6.082031 C 95.503906 5.425781 95.667969 4.4375 95.996094 3.289062 C 99.285156 -9.207031 102.738281 -21.863281 106.1875 -34.355469 C 105.695312 -35.011719 104.378906 -35.835938 104.378906 -36.65625 C 104.378906 -38.136719 114.242188 -73.96875 114.902344 -74.957031 C 115.722656 -76.105469 117.53125 -76.4375 118.1875 -77.75 C 120.160156 -81.203125 120.652344 -86.628906 121.640625 -90.410156 C 124.105469 -99.285156 126.570312 -108.160156 129.039062 -117.039062 C 129.203125 -117.695312 129.367188 -118.351562 129.367188 -119.011719 Z M 129.367188 -119.011719 "/></g></g></g><g fill="#212121" fill-opacity="1"><g transform="translate(560.452531, 156.481531)"><g/></g></g><g fill="#212121" fill-opacity="1"><g transform="translate(606.47528, 156.481531)"><g><path d="M 95.996094 -128.707031 C 95.175781 -123.777344 69.859375 -80.382812 65.257812 -70.847656 C 64.601562 -69.367188 63.941406 -67.886719 63.941406 -66.246094 C 63.941406 -63.777344 64.929688 -61.148438 65.09375 -58.683594 C 64.109375 -56.382812 61.972656 -52.4375 61.972656 -49.972656 C 61.972656 -48.164062 63.121094 -47.503906 64.765625 -47.667969 L 65.914062 -47.835938 C 65.09375 -39.285156 66.082031 -30.574219 66.410156 -22.027344 L 64.4375 -19.066406 C 64.273438 -17.753906 64.109375 -16.4375 64.109375 -15.121094 C 64.109375 -12.328125 65.257812 -9.699219 65.257812 -7.066406 C 65.257812 -3.945312 48 -1.644531 44.710938 -1.644531 C 43.890625 -1.644531 43.230469 -1.644531 42.574219 -1.972656 C 41.585938 -5.097656 41.09375 -10.027344 41.09375 -13.316406 C 41.09375 -16.273438 42.738281 -18.410156 42.738281 -21.039062 C 42.738281 -22.191406 42.082031 -23.339844 40.929688 -23.671875 C 40.765625 -26.136719 40.765625 -28.765625 40.765625 -31.230469 C 40.765625 -36.65625 41.421875 -42.738281 40.601562 -48.164062 C 40.4375 -49.640625 39.617188 -50.628906 37.972656 -50.628906 C 36.820312 -50.628906 35.835938 -50.136719 34.847656 -49.640625 C 32.054688 -48 31.066406 -44.546875 30.082031 -41.585938 C 25.808594 -27.945312 22.355469 -13.972656 18.574219 -0.164062 C 14.957031 1.316406 15.453125 2.792969 12.984375 4.765625 C 7.234375 5.917969 1.316406 7.066406 -4.601562 7.890625 C -2.957031 -0.820312 -0.492188 -9.371094 1.972656 -17.917969 C 4.4375 -19.726562 7.398438 -22.683594 7.398438 -25.972656 C 7.398438 -26.957031 7.066406 -28.109375 6.410156 -28.929688 C 9.863281 -40.929688 12 -53.257812 15.289062 -65.421875 C 16.929688 -67.394531 20.382812 -71.011719 20.382812 -73.476562 C 20.382812 -75.285156 19.066406 -76.929688 19.066406 -78.738281 C 19.066406 -84.160156 26.464844 -96.984375 26.464844 -102.242188 C 26.464844 -103.230469 25.644531 -104.050781 25.148438 -104.875 C 25.808594 -107.996094 27.121094 -114.40625 29.257812 -116.875 C 33.039062 -118.023438 37.148438 -117.695312 40.929688 -118.847656 C 40.929688 -118.023438 41.257812 -116.050781 42.410156 -116.050781 C 45.367188 -116.050781 47.667969 -124.433594 53.75 -124.433594 C 53.917969 -124.433594 54.738281 -124.269531 54.738281 -123.941406 C 54.738281 -123.613281 54.574219 -123.449219 54.574219 -123.285156 C 52.601562 -113.421875 40.273438 -78.902344 40.273438 -72.984375 C 40.273438 -71.667969 40.765625 -70.847656 42.246094 -70.847656 C 46.683594 -70.847656 58.683594 -99.941406 62.464844 -105.039062 C 65.421875 -109.148438 69.53125 -110.460938 69.53125 -116.378906 C 69.53125 -120.324219 71.339844 -125.75 75.941406 -125.75 C 78.246094 -125.75 80.710938 -125.421875 83.011719 -125.421875 C 89.09375 -125.421875 90.902344 -129.367188 94.023438 -129.367188 C 94.847656 -129.367188 95.339844 -129.203125 95.996094 -128.707031 Z M 104.875 -121.476562 C 104.875 -122.789062 102.242188 -122.789062 101.421875 -122.789062 C 99.613281 -122.789062 98.957031 -122.132812 97.476562 -121.148438 C 98.792969 -123.613281 101.09375 -128.050781 101.09375 -130.84375 C 101.09375 -133.640625 98.460938 -134.296875 96.160156 -134.296875 C 91.558594 -134.296875 88.929688 -130.351562 84.492188 -130.351562 C 82.1875 -130.351562 79.722656 -130.679688 77.421875 -130.679688 C 71.996094 -130.679688 69.203125 -127.394531 66.738281 -122.789062 C 64.601562 -118.679688 65.585938 -113.914062 62.136719 -110.625 C 62.628906 -112.105469 63.449219 -114.242188 63.449219 -115.886719 C 63.449219 -117.039062 62.792969 -117.53125 61.640625 -117.53125 C 60.164062 -117.53125 58.683594 -117.039062 57.367188 -116.542969 C 57.859375 -118.023438 59.667969 -123.941406 59.667969 -125.09375 C 59.667969 -127.558594 57.039062 -128.214844 55.066406 -128.214844 C 51.449219 -128.214844 47.175781 -126.570312 44.875 -123.777344 C 44.054688 -124.269531 29.257812 -121.804688 28.273438 -121.148438 C 25.644531 -119.503906 20.054688 -106.351562 20.054688 -103.066406 C 20.054688 -102.078125 20.382812 -101.09375 21.039062 -100.269531 C 19.890625 -95.503906 14.136719 -80.050781 14.136719 -77.257812 C 14.136719 -75.285156 15.289062 -73.476562 15.289062 -71.832031 L 15.121094 -71.503906 C 13.972656 -70.023438 10.847656 -65.914062 10.355469 -64.4375 C 6.082031 -51.945312 4.601562 -38.464844 0.820312 -25.808594 C 1.316406 -25.3125 1.972656 -24.820312 1.972656 -24 C 1.972656 -22.355469 -0.820312 -20.710938 -1.972656 -20.054688 C -3.945312 -13.316406 -9.699219 4.109375 -9.699219 10.191406 C -9.699219 12 -8.546875 12.984375 -6.738281 12.984375 C -3.945312 12.984375 -0.820312 12 1.972656 11.507812 C 1.644531 13.148438 0.820312 15.121094 0.820312 16.765625 C 0.820312 17.753906 1.316406 17.753906 2.136719 17.753906 C 3.78125 17.753906 18.082031 15.121094 19.726562 14.628906 C 21.863281 13.808594 22.355469 12.164062 23.835938 10.683594 C 24.984375 9.535156 26.957031 9.207031 27.453125 7.5625 C 30.902344 -3.125 33.039062 -14.300781 36.164062 -25.148438 C 36.492188 -23.011719 36.984375 -20.710938 37.644531 -18.574219 C 36.65625 -15.121094 36 -11.671875 36 -8.054688 C 36 -2.957031 36 3.453125 42.574219 3.453125 C 44.054688 3.453125 45.699219 3.125 47.175781 2.957031 C 47.667969 6.574219 47.175781 7.890625 51.285156 7.890625 C 54.738281 7.890625 70.355469 5.753906 72.65625 3.78125 C 73.640625 2.957031 73.476562 0 73.476562 -1.152344 C 73.476562 -4.273438 72.65625 -7.890625 73.148438 -11.011719 L 75.285156 -14.136719 C 75.121094 -20.875 74.792969 -27.453125 74.792969 -34.191406 C 74.792969 -35.339844 75.285156 -41.421875 74.136719 -41.421875 C 72.820312 -41.421875 70.847656 -40.765625 70.847656 -43.066406 C 70.847656 -46.027344 74.136719 -49.640625 74.136719 -51.449219 C 74.136719 -53.917969 72.984375 -56.21875 72.984375 -58.683594 C 72.984375 -66.410156 104.875 -114.738281 104.875 -121.476562 Z M 104.875 -121.476562 "/></g></g></g><g fill="#212121" fill-opacity="1"><g transform="translate(683.563591, 156.481531)"><g><path d="M 101.914062 -131.667969 C 100.765625 -123.941406 97.804688 -116.542969 95.832031 -108.984375 C 93.695312 -100.929688 91.230469 -93.203125 89.09375 -85.148438 C 86.792969 -82.847656 84.984375 -78.574219 84.984375 -75.285156 C 84.984375 -73.96875 85.3125 -72.328125 86.792969 -71.667969 C 83.011719 -58.519531 78.902344 -45.367188 75.285156 -32.21875 C 73.476562 -30.738281 69.695312 -26.792969 69.695312 -24.328125 C 69.695312 -23.011719 71.011719 -22.847656 71.996094 -22.847656 L 72.820312 -22.847656 C 67.230469 -0.65625 71.996094 -6.246094 49.476562 -0.164062 C 48.164062 0.164062 46.355469 0.984375 45.039062 0.984375 C 44.875 0.984375 44.710938 0.984375 44.710938 0.820312 C 44.710938 -0.820312 50.792969 -25.480469 51.78125 -27.617188 C 52.929688 -30.246094 54.738281 -31.726562 54.738281 -34.847656 C 54.738281 -35.835938 54.574219 -36.984375 53.917969 -37.808594 C 54.082031 -40.765625 56.21875 -43.558594 56.21875 -46.683594 C 56.21875 -48 55.558594 -48.65625 54.246094 -48.65625 C 50.792969 -48.65625 46.027344 -46.191406 42.574219 -45.203125 C 38.464844 -44.054688 34.191406 -44.875 31.726562 -40.4375 C 25.148438 -28.765625 24.65625 -9.535156 19.066406 3.617188 C 15.617188 5.589844 11.835938 6.574219 8.054688 7.726562 L 8.546875 4.765625 C 4.4375 5.425781 0.328125 7.890625 -3.78125 8.054688 C -1.808594 -6.410156 2.957031 -20.382812 7.234375 -34.355469 C 8.710938 -36.164062 9.039062 -38.628906 10.683594 -40.4375 C 10.191406 -41.753906 13.480469 -52.765625 13.808594 -55.394531 L 12.328125 -56.875 C 13.480469 -64.601562 15.617188 -72.820312 18.246094 -80.050781 C 19.398438 -83.011719 23.671875 -86.628906 23.671875 -89.257812 C 23.671875 -90.574219 22.519531 -91.558594 21.535156 -92.214844 C 23.507812 -100.601562 25.808594 -108.984375 29.09375 -117.039062 C 35.175781 -119.832031 47.339844 -122.132812 54.082031 -122.957031 C 52.109375 -113.585938 43.066406 -87.285156 43.066406 -80.875 C 43.066406 -78.902344 44.054688 -78.574219 45.699219 -78.574219 C 46.847656 -78.574219 48.328125 -79.066406 49.476562 -79.394531 C 61.804688 -82.519531 64.273438 -81.367188 67.230469 -95.011719 C 69.203125 -96.492188 70.519531 -98.792969 70.519531 -101.421875 C 70.519531 -102.574219 70.355469 -103.886719 69.859375 -104.875 C 71.832031 -111.941406 73.804688 -118.847656 76.105469 -125.75 C 84.492188 -128.214844 93.203125 -130.679688 101.914062 -131.667969 Z M 110.957031 -125.257812 C 108.984375 -125.09375 106.847656 -124.761719 104.875 -124.433594 C 106.023438 -128.542969 107.011719 -132.652344 107.339844 -136.925781 C 95.503906 -135.941406 83.996094 -132.652344 72.65625 -129.367188 C 69.695312 -120.488281 66.902344 -111.449219 64.4375 -102.40625 C 64.929688 -101.75 65.585938 -100.765625 65.585938 -99.941406 C 65.585938 -98.628906 63.941406 -97.640625 62.957031 -97.148438 C 61.3125 -89.09375 63.941406 -87.613281 54.738281 -85.3125 C 57.53125 -95.503906 61.972656 -106.023438 63.121094 -116.707031 C 60.984375 -116.542969 59.011719 -116.050781 56.875 -115.722656 C 58.027344 -119.832031 59.011719 -124.105469 59.503906 -128.378906 C 48.492188 -127.230469 35.339844 -125.09375 25.644531 -119.667969 C 21.535156 -109.804688 18.574219 -99.613281 16.109375 -89.257812 L 18.246094 -87.285156 C 15.78125 -84.820312 14.464844 -82.683594 13.316406 -79.394531 C 12 -75.449219 7.234375 -57.039062 7.234375 -53.585938 L 8.546875 -52.4375 C 7.5625 -48.492188 6.246094 -44.382812 5.589844 -40.273438 C 4.601562 -38.628906 4.273438 -36.820312 2.957031 -35.503906 C -1.808594 -19.726562 -7.066406 -3.945312 -9.207031 12.492188 C -8.21875 12.820312 -7.066406 12.820312 -5.917969 12.820312 C -2.957031 12.820312 0 11.835938 2.792969 10.847656 C 2.300781 13.148438 1.972656 15.453125 1.644531 17.753906 C 1.972656 17.753906 2.464844 17.753906 2.792969 17.753906 C 6.246094 17.753906 10.519531 15.453125 13.972656 14.792969 C 13.808594 15.453125 13.644531 16.273438 13.644531 16.929688 C 13.644531 17.261719 13.644531 17.753906 14.136719 17.753906 C 16.273438 17.753906 25.480469 13.972656 27.453125 12.65625 C 33.039062 1.152344 35.339844 -24.164062 40.4375 -32.21875 C 42.246094 -35.011719 46.027344 -34.847656 48.820312 -35.339844 C 48.984375 -34.847656 49.640625 -33.367188 49.640625 -32.875 C 49.640625 -31.890625 48.65625 -30.738281 48.328125 -29.917969 C 46.191406 -25.972656 39.617188 -1.644531 39.617188 2.628906 C 39.617188 4.929688 42.410156 5.097656 44.054688 5.097656 C 46.519531 5.097656 48.984375 4.601562 51.285156 4.109375 C 50.792969 5.917969 50.136719 7.726562 50.136719 9.535156 C 50.464844 9.863281 51.285156 10.191406 51.78125 10.191406 C 55.722656 10.191406 72.492188 6.082031 75.449219 3.945312 C 77.09375 2.792969 81.695312 -12.492188 81.695312 -14.957031 C 81.695312 -16.601562 78.902344 -16.109375 78.902344 -17.753906 C 78.902344 -20.382812 83.339844 -22.519531 84.160156 -24.328125 C 85.96875 -28.4375 86.628906 -33.367188 87.941406 -37.644531 C 90.574219 -46.683594 93.367188 -55.890625 95.996094 -64.929688 C 94.351562 -64.601562 93.859375 -66.082031 93.859375 -67.394531 C 93.859375 -70.191406 95.667969 -74.628906 97.804688 -76.601562 C 99.941406 -84.820312 102.574219 -93.039062 104.710938 -101.257812 C 106.847656 -109.148438 110.296875 -117.039062 110.957031 -125.257812 Z M 110.957031 -125.257812 "/></g></g></g><g fill="#212121" fill-opacity="1"><g transform="translate(770.020877, 156.481531)"><g><path d="M 46.683594 -61.640625 C 46.355469 -58.683594 45.203125 -47.339844 43.726562 -45.53125 C 41.917969 -45.039062 40.273438 -44.546875 38.464844 -44.21875 C 41.09375 -50.136719 43.726562 -55.890625 46.683594 -61.640625 Z M 52.929688 -86.300781 C 52.929688 -87.941406 52.601562 -90.738281 50.300781 -90.738281 C 48 -90.738281 46.191406 -88.269531 45.203125 -86.628906 C 42.410156 -82.023438 24.820312 -41.585938 24.820312 -39.78125 C 24.820312 -38.136719 26.136719 -37.476562 27.617188 -37.476562 C 28.109375 -37.476562 28.601562 -37.644531 29.09375 -37.644531 C 32.710938 -38.136719 44.21875 -40.601562 46.519531 -42.902344 C 49.3125 -45.863281 51.945312 -60.820312 51.945312 -65.09375 C 51.945312 -65.585938 51.78125 -66.574219 50.957031 -66.574219 L 50.136719 -66.574219 C 50.957031 -72.984375 52.929688 -79.722656 52.929688 -86.300781 Z M 84.492188 -126.40625 C 83.667969 -114.242188 82.1875 -101.75 79.722656 -89.75 C 77.421875 -79.066406 75.449219 -68.382812 74.300781 -57.53125 L 76.601562 -58.191406 C 75.285156 -50.464844 74.300781 -42.902344 73.148438 -35.175781 L 69.203125 -31.230469 L 72.820312 -26.464844 C 71.832031 -19.5625 71.175781 -12.65625 69.53125 -5.917969 C 65.914062 -4.765625 62.136719 -3.78125 58.355469 -2.792969 C 57.53125 -3.453125 57.53125 -4.601562 57.203125 -5.425781 C 52.4375 -4.4375 47.503906 -2.957031 42.574219 -2.300781 C 43.726562 -7.066406 44.546875 -12.65625 44.546875 -17.589844 C 44.546875 -19.726562 44.054688 -21.535156 41.421875 -21.535156 C 37.476562 -21.535156 23.671875 -19.066406 19.890625 -17.753906 C 12 -14.957031 10.847656 -4.273438 8.054688 2.464844 C 1.808594 5.261719 -4.929688 6.574219 -11.671875 6.574219 C -6.738281 -4.4375 -1.644531 -15.453125 3.78125 -26.300781 L 0.984375 -27.121094 C 4.109375 -34.683594 25.808594 -84.492188 28.601562 -87.941406 C 29.753906 -89.257812 31.230469 -89.09375 32.710938 -91.066406 L 29.257812 -94.519531 C 33.367188 -103.230469 37.148438 -111.941406 42.246094 -119.996094 C 49.640625 -121.640625 57.203125 -122.957031 64.765625 -124.269531 C 64.273438 -123.121094 65.257812 -121.96875 65.75 -120.984375 C 71.011719 -121.96875 75.613281 -126.734375 83.667969 -126.570312 Z M 93.53125 -119.832031 C 93.039062 -119.996094 92.378906 -120.160156 91.722656 -120.160156 C 90.738281 -120.160156 89.75 -119.832031 88.765625 -119.667969 C 89.09375 -123.285156 89.585938 -126.898438 89.75 -130.515625 C 88.4375 -131.175781 86.957031 -131.339844 85.476562 -131.339844 C 80.21875 -131.339844 73.96875 -129.367188 69.367188 -126.734375 C 68.875 -128.214844 68.21875 -129.203125 66.574219 -129.203125 C 61.476562 -129.203125 46.027344 -125.585938 40.4375 -124.269531 C 33.203125 -114.40625 28.601562 -102.902344 23.339844 -91.886719 L 25.480469 -89.75 C 21.371094 -86.132812 -1.644531 -31.230469 -5.261719 -23.011719 L -2.792969 -22.355469 C -8.21875 -11.34375 -13.316406 0 -18.410156 11.179688 C -16.4375 11.34375 -14.136719 11.671875 -12.164062 11.671875 C -9.535156 11.671875 -6.902344 11.34375 -4.273438 10.847656 L -6.738281 16.4375 C -5.917969 16.4375 -5.261719 16.4375 -4.4375 16.4375 C 2.136719 16.4375 10.683594 14.792969 16.4375 11.671875 C 24.492188 -5.753906 17.09375 -6.902344 38.957031 -10.355469 C 38.464844 -7.234375 37.808594 -3.945312 37.808594 -0.820312 C 37.808594 0.492188 37.808594 1.808594 38.464844 2.957031 C 41.917969 2.628906 45.53125 1.972656 48.820312 0.820312 C 48.65625 2.792969 48.164062 5.097656 48.164062 7.066406 L 48.328125 7.726562 C 53.421875 7.234375 58.191406 5.753906 63.121094 4.601562 C 63.449219 5.917969 63.449219 7.066406 65.09375 7.066406 C 65.914062 7.066406 76.601562 3.78125 78.078125 3.289062 C 80.21875 -4.109375 80.710938 -11.835938 81.859375 -19.398438 L 78.738281 -23.507812 L 82.023438 -26.792969 C 83.175781 -35.175781 84.328125 -43.558594 85.804688 -51.945312 L 83.339844 -51.449219 C 84.492188 -61.804688 86.464844 -71.832031 88.601562 -82.023438 C 91.230469 -94.351562 92.875 -107.339844 93.53125 -119.832031 Z M 93.53125 -119.832031 "/></g></g></g><g fill="#212121" fill-opacity="1"><g transform="translate(852.697682, 156.481531)"><g><path d="M 55.558594 -124.597656 C 55.558594 -122.789062 38.628906 -63.941406 37.3125 -60.164062 C 36.492188 -57.859375 34.191406 -53.09375 34.191406 -50.957031 C 34.191406 -49.640625 35.175781 -48.984375 35.175781 -47.835938 C 35.175781 -42.574219 29.257812 -31.394531 29.257812 -23.671875 C 29.257812 -22.847656 29.257812 -22.027344 29.753906 -21.371094 C 30.082031 -21.371094 30.574219 -21.203125 30.902344 -21.203125 C 37.972656 -21.203125 45.039062 -25.3125 51.945312 -25.3125 C 52.4375 -25.3125 52.765625 -25.3125 52.765625 -24.65625 C 52.765625 -22.027344 47.175781 -6.082031 45.367188 -4.4375 C 43.890625 -2.957031 26.464844 1.808594 23.835938 1.808594 C 22.027344 1.808594 20.546875 0.820312 18.738281 0.820312 C 12.492188 0.820312 2.957031 5.917969 -4.109375 5.917969 C -4.273438 5.917969 -4.273438 5.753906 -4.273438 5.425781 C -4.273438 4.273438 -2.792969 -1.808594 -2.300781 -2.957031 C -1.480469 -5.097656 1.316406 -5.261719 1.316406 -9.207031 C 1.316406 -10.355469 -0.164062 -11.179688 -0.164062 -12.328125 C -0.164062 -13.148438 3.78125 -27.121094 4.4375 -28.929688 C 5.425781 -32.054688 9.207031 -33.039062 9.207031 -37.148438 C 9.207031 -38.628906 7.5625 -39.617188 7.5625 -40.929688 C 7.5625 -42.902344 14.300781 -67.558594 15.453125 -71.011719 C 16.4375 -73.804688 18.082031 -76.105469 19.230469 -78.902344 C 21.699219 -85.148438 25.808594 -113.75 28.109375 -116.050781 C 29.917969 -117.695312 38.300781 -118.023438 40.929688 -119.011719 C 42.738281 -119.667969 44.054688 -121.476562 45.039062 -122.957031 C 48.164062 -123.613281 52.109375 -125.257812 55.230469 -125.257812 C 55.558594 -125.257812 55.558594 -124.929688 55.558594 -124.597656 Z M 64.273438 -117.695312 C 64.273438 -117.859375 64.109375 -118.351562 63.941406 -118.515625 C 63.777344 -118.515625 63.449219 -118.679688 63.285156 -118.679688 C 61.640625 -118.679688 60 -118.1875 58.355469 -117.859375 C 59.175781 -120.984375 60 -124.433594 60 -127.722656 C 60 -129.53125 59.667969 -129.859375 57.859375 -129.859375 C 52.109375 -129.859375 44.054688 -128.542969 40.601562 -123.613281 C 37.476562 -122.957031 26.792969 -120.324219 24.984375 -118.351562 C 20.054688 -112.765625 17.917969 -85.3125 12.65625 -75.121094 C 6.902344 -64.273438 6.738281 -52.273438 2.957031 -40.765625 C 2.792969 -40.109375 2.628906 -39.617188 2.628906 -38.957031 C 2.628906 -37.476562 3.453125 -36.164062 4.109375 -34.847656 C 2.136719 -32.21875 0.328125 -30.902344 -0.492188 -27.617188 C -1.316406 -24.164062 -5.261719 -12.820312 -5.261719 -10.355469 C -5.261719 -9.207031 -4.765625 -8.054688 -4.109375 -7.066406 C -7.234375 -4.273438 -9.371094 2.628906 -9.371094 6.738281 C -9.371094 8.382812 -9.039062 11.011719 -6.902344 11.011719 C -4.109375 11.011719 -0.820312 9.863281 1.972656 9.207031 C 1.480469 10.847656 0.984375 12.65625 0.984375 14.300781 C 0.984375 14.957031 1.152344 15.78125 1.972656 15.78125 C 9.039062 15.78125 19.230469 10.683594 25.480469 10.683594 C 27.285156 10.683594 28.765625 11.507812 30.574219 11.507812 C 33.535156 11.507812 51.613281 6.410156 53.421875 4.765625 C 55.066406 3.125 61.476562 -14.957031 61.476562 -17.589844 C 61.476562 -18.574219 61.148438 -19.066406 60.164062 -19.066406 C 58.519531 -19.066406 56.546875 -18.082031 54.902344 -17.589844 C 55.890625 -20.382812 57.695312 -25.3125 57.695312 -28.273438 C 57.695312 -28.929688 57.53125 -30.082031 56.546875 -30.082031 C 51.285156 -30.082031 45.367188 -27.945312 40.273438 -26.792969 C 41.09375 -29.589844 44.21875 -38.300781 44.21875 -40.601562 C 44.21875 -41.917969 43.230469 -42.410156 43.230469 -43.558594 C 43.230469 -45.53125 45.367188 -49.972656 46.191406 -52.109375 C 48.65625 -59.011719 64.273438 -114.078125 64.273438 -117.695312 Z M 64.273438 -117.695312 "/></g></g></g><g fill="#212121" fill-opacity="1"><g transform="translate(913.842264, 156.481531)"><g><path d="M 56.054688 -125.421875 C 53.257812 -112.105469 48.820312 -99.121094 45.367188 -85.96875 C 44.054688 -84.984375 42.574219 -83.996094 41.753906 -82.519531 C 40.4375 -80.546875 30.902344 -44.875 30.902344 -42.082031 C 30.902344 -41.09375 32.054688 -40.109375 32.875 -39.617188 C 29.421875 -26.628906 27.617188 -12.65625 22.519531 -0.164062 C 16.4375 2.136719 7.890625 4.601562 1.480469 4.601562 C 0.164062 4.601562 -1.316406 4.601562 -2.628906 4.109375 C -2.792969 3.945312 -2.957031 3.617188 -2.957031 3.289062 C -2.957031 0.164062 0.492188 -9.039062 1.644531 -12.492188 C 3.78125 -13.316406 6.902344 -15.121094 6.902344 -17.753906 C 6.902344 -19.398438 5.753906 -20.875 4.601562 -21.863281 C 6.246094 -31.726562 9.371094 -41.09375 11.835938 -50.792969 C 13.316406 -56.710938 14.464844 -62.628906 15.945312 -68.382812 C 16.765625 -71.503906 17.917969 -74.628906 18.738281 -77.75 C 19.726562 -82.023438 21.039062 -85.96875 22.027344 -90.242188 C 24.328125 -92.710938 27.945312 -96.984375 27.945312 -100.601562 C 27.945312 -101.914062 27.285156 -103.230469 26.136719 -103.886719 C 27.121094 -108.820312 28.601562 -114.738281 30.738281 -119.175781 C 33.535156 -119.503906 36.164062 -120.820312 38.957031 -121.3125 C 39.945312 -119.832031 41.753906 -119.339844 43.394531 -119.339844 C 46.519531 -119.339844 48.984375 -121.148438 50.464844 -123.777344 C 52.273438 -124.269531 54.246094 -124.929688 56.054688 -125.421875 Z M 64.929688 -117.859375 C 64.929688 -118.351562 64.765625 -118.679688 64.4375 -119.011719 C 62.464844 -118.515625 60.65625 -118.023438 58.683594 -117.53125 C 59.503906 -120.488281 60.820312 -123.613281 60.820312 -126.734375 C 60.820312 -128.214844 60.492188 -129.695312 59.175781 -130.679688 C 55.230469 -129.859375 51.285156 -128.707031 47.339844 -128.050781 C 47.011719 -126.898438 46.683594 -125.585938 46.027344 -124.433594 C 43.890625 -124.433594 43.394531 -124.929688 42.738281 -126.898438 C 39.121094 -126.078125 35.175781 -126.40625 31.5625 -125.585938 C 24.65625 -124.105469 21.699219 -106.1875 20.710938 -100.105469 C 21.535156 -99.777344 22.355469 -98.957031 22.355469 -97.96875 C 22.355469 -95.667969 19.066406 -92.710938 17.425781 -91.230469 C 16.765625 -86.300781 15.121094 -81.367188 13.808594 -76.601562 C 11.507812 -67.722656 9.207031 -58.683594 6.902344 -49.808594 C 4.4375 -39.945312 1.316406 -30.082031 -0.492188 -20.054688 L -0.492188 -19.398438 C -0.492188 -18.410156 0.492188 -17.425781 1.152344 -16.929688 L -2.136719 -15.121094 C -3.945312 -10.355469 -7.726562 2.957031 -7.726562 7.726562 C -7.726562 10.191406 -5.261719 9.699219 -3.289062 9.699219 C -0.984375 9.699219 1.316406 9.535156 3.617188 9.207031 C 3.453125 10.355469 3.125 11.34375 3.125 12.492188 C 3.125 14.464844 5.589844 14.300781 7.066406 14.300781 C 11.671875 14.300781 26.464844 12 30.082031 9.371094 C 31.394531 8.382812 31.394531 7.890625 31.726562 6.410156 C 35.175781 -6.574219 38.464844 -19.5625 41.917969 -32.546875 C 41.421875 -32.875 39.945312 -34.027344 39.945312 -34.683594 C 39.945312 -37.148438 49.476562 -72.984375 50.464844 -74.300781 C 51.449219 -75.613281 52.765625 -76.4375 53.917969 -77.421875 C 55.394531 -82.683594 64.929688 -115.558594 64.929688 -117.859375 Z M 64.929688 -117.859375 "/></g></g></g><g fill="#212121" fill-opacity="1"><g transform="translate(956.248892, 156.481531)"><g><path d="M 55.558594 -124.597656 C 55.558594 -122.789062 38.628906 -63.941406 37.3125 -60.164062 C 36.492188 -57.859375 34.191406 -53.09375 34.191406 -50.957031 C 34.191406 -49.640625 35.175781 -48.984375 35.175781 -47.835938 C 35.175781 -42.574219 29.257812 -31.394531 29.257812 -23.671875 C 29.257812 -22.847656 29.257812 -22.027344 29.753906 -21.371094 C 30.082031 -21.371094 30.574219 -21.203125 30.902344 -21.203125 C 37.972656 -21.203125 45.039062 -25.3125 51.945312 -25.3125 C 52.4375 -25.3125 52.765625 -25.3125 52.765625 -24.65625 C 52.765625 -22.027344 47.175781 -6.082031 45.367188 -4.4375 C 43.890625 -2.957031 26.464844 1.808594 23.835938 1.808594 C 22.027344 1.808594 20.546875 0.820312 18.738281 0.820312 C 12.492188 0.820312 2.957031 5.917969 -4.109375 5.917969 C -4.273438 5.917969 -4.273438 5.753906 -4.273438 5.425781 C -4.273438 4.273438 -2.792969 -1.808594 -2.300781 -2.957031 C -1.480469 -5.097656 1.316406 -5.261719 1.316406 -9.207031 C 1.316406 -10.355469 -0.164062 -11.179688 -0.164062 -12.328125 C -0.164062 -13.148438 3.78125 -27.121094 4.4375 -28.929688 C 5.425781 -32.054688 9.207031 -33.039062 9.207031 -37.148438 C 9.207031 -38.628906 7.5625 -39.617188 7.5625 -40.929688 C 7.5625 -42.902344 14.300781 -67.558594 15.453125 -71.011719 C 16.4375 -73.804688 18.082031 -76.105469 19.230469 -78.902344 C 21.699219 -85.148438 25.808594 -113.75 28.109375 -116.050781 C 29.917969 -117.695312 38.300781 -118.023438 40.929688 -119.011719 C 42.738281 -119.667969 44.054688 -121.476562 45.039062 -122.957031 C 48.164062 -123.613281 52.109375 -125.257812 55.230469 -125.257812 C 55.558594 -125.257812 55.558594 -124.929688 55.558594 -124.597656 Z M 64.273438 -117.695312 C 64.273438 -117.859375 64.109375 -118.351562 63.941406 -118.515625 C 63.777344 -118.515625 63.449219 -118.679688 63.285156 -118.679688 C 61.640625 -118.679688 60 -118.1875 58.355469 -117.859375 C 59.175781 -120.984375 60 -124.433594 60 -127.722656 C 60 -129.53125 59.667969 -129.859375 57.859375 -129.859375 C 52.109375 -129.859375 44.054688 -128.542969 40.601562 -123.613281 C 37.476562 -122.957031 26.792969 -120.324219 24.984375 -118.351562 C 20.054688 -112.765625 17.917969 -85.3125 12.65625 -75.121094 C 6.902344 -64.273438 6.738281 -52.273438 2.957031 -40.765625 C 2.792969 -40.109375 2.628906 -39.617188 2.628906 -38.957031 C 2.628906 -37.476562 3.453125 -36.164062 4.109375 -34.847656 C 2.136719 -32.21875 0.328125 -30.902344 -0.492188 -27.617188 C -1.316406 -24.164062 -5.261719 -12.820312 -5.261719 -10.355469 C -5.261719 -9.207031 -4.765625 -8.054688 -4.109375 -7.066406 C -7.234375 -4.273438 -9.371094 2.628906 -9.371094 6.738281 C -9.371094 8.382812 -9.039062 11.011719 -6.902344 11.011719 C -4.109375 11.011719 -0.820312 9.863281 1.972656 9.207031 C 1.480469 10.847656 0.984375 12.65625 0.984375 14.300781 C 0.984375 14.957031 1.152344 15.78125 1.972656 15.78125 C 9.039062 15.78125 19.230469 10.683594 25.480469 10.683594 C 27.285156 10.683594 28.765625 11.507812 30.574219 11.507812 C 33.535156 11.507812 51.613281 6.410156 53.421875 4.765625 C 55.066406 3.125 61.476562 -14.957031 61.476562 -17.589844 C 61.476562 -18.574219 61.148438 -19.066406 60.164062 -19.066406 C 58.519531 -19.066406 56.546875 -18.082031 54.902344 -17.589844 C 55.890625 -20.382812 57.695312 -25.3125 57.695312 -28.273438 C 57.695312 -28.929688 57.53125 -30.082031 56.546875 -30.082031 C 51.285156 -30.082031 45.367188 -27.945312 40.273438 -26.792969 C 41.09375 -29.589844 44.21875 -38.300781 44.21875 -40.601562 C 44.21875 -41.917969 43.230469 -42.410156 43.230469 -43.558594 C 43.230469 -45.53125 45.367188 -49.972656 46.191406 -52.109375 C 48.65625 -59.011719 64.273438 -114.078125 64.273438 -117.695312 Z M 64.273438 -117.695312 "/></g></g></g></svg>