<svg xmlns="http://www.w3.org/2000/svg" xmlns:xlink="http://www.w3.org/1999/xlink" width="1366" zoomAndPan="magnify" viewBox="0 0 1024.5 149.999998" height="200" preserveAspectRatio="xMidYMid meet" version="1.0"><defs><g/></defs><g fill="#3d3d3d" fill-opacity="1"><g transform="translate(0.974787, 126.16515)"><g><path d="M 55.675781 -32.503906 L 59.875 -32.503906 L 63.605469 -32.347656 C 66.25 -32.347656 67.652344 -33.902344 69.363281 -38.570312 C 71.226562 -44.011719 72.160156 -48.210938 72.160156 -51.164062 C 72.160156 -52.722656 72.160156 -52.722656 70.605469 -54.742188 L 65.472656 -62.828125 C 63.453125 -65.941406 61.273438 -66.5625 53.652344 -66.875 L 46.8125 -66.875 L 45.878906 -68.429688 C 46.8125 -68.582031 47.277344 -68.582031 47.746094 -68.582031 L 49.921875 -68.429688 L 62.984375 -68.273438 C 63.605469 -68.273438 64.695312 -68.273438 67.496094 -68.117188 C 70.449219 -67.960938 71.070312 -67.960938 71.695312 -67.960938 C 75.894531 -67.960938 76.828125 -68.894531 78.847656 -74.492188 C 80.246094 -78.382812 81.492188 -84.292969 81.492188 -86.78125 C 81.492188 -88.492188 81.492188 -88.644531 80.402344 -90.046875 L 73.40625 -100.464844 C 71.695312 -102.796875 70.605469 -103.109375 63.761719 -103.265625 L 45.566406 -103.730469 L 44.324219 -103.730469 C 41.988281 -103.886719 29.859375 -103.574219 25.351562 -103.421875 C 17.105469 -102.953125 15.550781 -102.019531 13.53125 -96.734375 C 11.820312 -91.601562 9.953125 -83.980469 9.953125 -81.335938 C 9.953125 -77.449219 12.128906 -75.269531 16.019531 -75.117188 L 13.839844 -66.25 C 9.796875 -65.941406 7.929688 -64.851562 6.375 -61.429688 C 4.820312 -58.164062 3.109375 -49.609375 3.109375 -45.566406 C 3.109375 -42.613281 4.355469 -40.746094 6.84375 -40.125 L 4.355469 -28.617188 C 3.886719 -26.4375 3.734375 -25.351562 3.734375 -23.949219 C 3.734375 -18.816406 6.222656 -14.773438 11.976562 -10.265625 L 21.617188 -2.800781 C 24.417969 -0.464844 25.351562 -0.15625 28.148438 0 L 34.371094 0 L 38.257812 -0.15625 L 54.121094 -0.15625 C 59.253906 -0.15625 60.652344 -1.089844 62.050781 -5.132812 C 63.605469 -9.332031 64.695312 -13.6875 64.695312 -16.328125 C 64.695312 -18.972656 64.539062 -19.285156 62.050781 -23.015625 Z M 38.414062 -64.074219 L 57.386719 -64.074219 C 61.117188 -64.074219 62.675781 -63.140625 62.675781 -60.964844 C 62.675781 -58.320312 61.429688 -53.03125 59.5625 -48.054688 C 57.851562 -43.234375 56.921875 -42.300781 53.964844 -42.300781 L 51.789062 -42.300781 C 50.542969 -42.457031 48.523438 -42.457031 46.65625 -42.457031 L 32.347656 -42.769531 L 29.238281 -30.015625 L 48.523438 -30.480469 L 49.765625 -30.480469 C 53.964844 -30.480469 55.210938 -29.546875 55.210938 -26.28125 C 55.210938 -23.792969 54.277344 -19.285156 52.875 -15.863281 C 51.011719 -10.730469 50.078125 -10.109375 44.476562 -10.109375 L 33.4375 -10.109375 L 24.570312 -9.953125 C 20.371094 -9.953125 17.105469 -10.574219 14.773438 -11.820312 C 9.953125 -14.308594 6.375 -19.441406 6.375 -23.949219 C 6.375 -24.882812 6.53125 -26.128906 6.84375 -27.371094 L 10.109375 -42.144531 C 6.6875 -42.457031 5.753906 -43.390625 5.753906 -46.1875 C 5.753906 -49.921875 7.621094 -58.476562 9.019531 -61.273438 C 9.953125 -63.296875 11.042969 -63.605469 15.707031 -63.761719 L 19.59375 -78.070312 L 16.953125 -77.914062 L 16.640625 -77.914062 C 14.464844 -77.605469 12.441406 -78.847656 12.441406 -80.714844 C 12.441406 -81.957031 12.441406 -81.957031 13.839844 -88.644531 C 16.796875 -99.222656 17.105469 -99.6875 20.21875 -100.464844 C 24.726562 -101.085938 30.015625 -101.242188 39.191406 -101.242188 L 46.1875 -101.242188 L 63.453125 -100.933594 C 71.226562 -100.621094 71.851562 -100.308594 71.851562 -96.734375 C 71.851562 -91.757812 69.050781 -81.957031 67.027344 -79.46875 C 65.628906 -77.914062 65.628906 -77.914062 59.253906 -77.914062 L 30.949219 -78.226562 L 36.390625 -75.582031 C 38.878906 -74.492188 40.125 -73.25 40.125 -72.160156 C 40.125 -71.382812 40.125 -70.917969 39.96875 -70.140625 Z M 38.414062 -64.074219 "/></g></g></g><g fill="#3d3d3d" fill-opacity="1"><g transform="translate(74.06612, 126.16515)"><g><path d="M 37.011719 -61.117188 C 45.566406 -62.984375 50.699219 -67.496094 50.699219 -73.40625 C 50.699219 -77.914062 46.8125 -80.402344 39.5 -80.402344 C 34.523438 -80.402344 30.792969 -79.625 24.417969 -77.449219 C 34.058594 -76.828125 39.5 -74.804688 39.5 -71.851562 C 39.5 -71.070312 39.347656 -70.292969 39.191406 -69.363281 Z M 35.769531 -56.140625 L 28.304688 -28.617188 C 29.703125 -28.304688 31.105469 -28.148438 31.882812 -28.148438 C 37.945312 -28.148438 43.390625 -32.96875 43.390625 -38.414062 C 43.390625 -40.746094 42.457031 -42.144531 40.28125 -43.078125 C 38.570312 -43.699219 38.257812 -44.167969 37.480469 -47.277344 Z M 72.316406 -90.980469 C 67.496094 -98.910156 54.742188 -104.507812 41.523438 -104.507812 C 30.171875 -104.507812 14.773438 -100 11.507812 -95.644531 C 9.332031 -92.84375 5.597656 -79.9375 5.597656 -75.117188 C 5.597656 -72.160156 7.621094 -69.828125 10.109375 -69.828125 C 10.574219 -69.828125 11.042969 -69.984375 11.664062 -70.140625 L 14.464844 -71.070312 L 9.640625 -54.277344 C 7.152344 -45.410156 3.109375 -27.683594 3.109375 -25.351562 C 3.109375 -23.328125 4.042969 -21.304688 5.910156 -18.816406 L 11.351562 -12.128906 C 13.53125 -9.332031 14.308594 -8.710938 17.261719 -6.53125 L 23.792969 -1.867188 C 27.214844 0.621094 30.015625 1.398438 35.304688 1.398438 C 59.097656 1.398438 75.269531 -10.417969 75.269531 -27.992188 C 75.269531 -34.214844 73.40625 -38.414062 68.117188 -43.546875 C 79.160156 -50.386719 83.667969 -57.074219 83.667969 -66.5625 C 83.667969 -71.539062 83.046875 -73.871094 80.558594 -77.914062 Z M 7 -22.238281 C 6.066406 -23.328125 5.597656 -24.417969 5.597656 -25.351562 C 5.597656 -28.304688 6.375 -31.882812 12.597656 -55.054688 L 18.351562 -75.582031 L 12.285156 -73.25 C 11.199219 -72.9375 10.417969 -72.628906 10.109375 -72.628906 C 8.863281 -72.472656 8.085938 -73.714844 8.085938 -75.425781 C 8.085938 -77.449219 9.332031 -83.515625 10.730469 -87.867188 C 12.90625 -94.398438 13.6875 -95.488281 17.261719 -96.886719 C 24.882812 -100 34.679688 -102.019531 41.523438 -102.019531 C 50.234375 -102.019531 58.628906 -99.53125 64.851562 -95.023438 C 70.761719 -90.667969 73.871094 -84.292969 73.871094 -76.203125 C 73.871094 -66.09375 69.984375 -60.496094 58.007812 -53.34375 C 63.453125 -47.746094 65.472656 -43.234375 65.472656 -37.011719 C 65.472656 -20.996094 48.988281 -8.863281 27.371094 -8.863281 C 19.128906 -8.863281 17.105469 -9.488281 14.308594 -13.0625 Z M 7 -22.238281 "/></g></g></g><g fill="#3d3d3d" fill-opacity="1"><g transform="translate(155.555207, 126.16515)"><g><path d="M 36.703125 -57.851562 C 46.8125 -59.253906 53.34375 -65.007812 53.34375 -72.628906 C 53.34375 -78.226562 48.054688 -81.804688 39.8125 -81.804688 C 35.769531 -81.804688 31.414062 -81.027344 24.726562 -79.160156 L 31.257812 -78.070312 C 38.570312 -76.980469 40.433594 -75.738281 40.433594 -72.472656 C 40.433594 -70.917969 39.96875 -68.894531 39.191406 -66.09375 Z M 61.898438 -32.503906 C 69.515625 -36.390625 72.9375 -38.878906 76.359375 -42.769531 C 82.113281 -49.453125 85.378906 -57.699219 85.378906 -65.785156 C 85.378906 -70.605469 83.980469 -75.894531 81.804688 -79.160156 L 73.25 -91.910156 C 67.652344 -100.308594 56.453125 -105.285156 42.769531 -105.285156 C 30.949219 -105.285156 15.394531 -101.710938 11.820312 -98.132812 C 9.332031 -95.800781 5.753906 -84.757812 5.753906 -79.46875 C 5.753906 -75.582031 8.242188 -72.9375 11.820312 -73.09375 C 11.976562 -73.09375 12.285156 -73.09375 12.597656 -73.25 L 15.863281 -73.714844 L 2.023438 -21.617188 C 1.398438 -18.816406 1.089844 -17.417969 1.089844 -16.328125 C 1.089844 -14.464844 2.023438 -12.753906 4.042969 -11.199219 L 12.90625 -4.511719 C 16.796875 -1.554688 22.394531 -0.15625 30.480469 -0.15625 C 32.96875 -0.15625 34.214844 -1.398438 34.992188 -4.511719 L 38.414062 -18.195312 L 45.101562 -6.375 L 46.1875 -4.355469 C 47.121094 -2.488281 47.277344 -2.332031 49.300781 -0.621094 L 59.097656 7.308594 C 60.339844 8.398438 61.117188 8.710938 61.898438 8.710938 C 63.296875 8.710938 65.316406 7.929688 70.449219 5.289062 C 76.050781 2.332031 78.382812 0.15625 78.382812 -2.332031 C 78.382812 -4.042969 77.136719 -6.53125 72.316406 -14.929688 Z M 64.230469 -22.550781 C 67.496094 -16.796875 69.050781 -13.53125 69.050781 -12.128906 C 69.050781 -10.265625 67.496094 -8.554688 63.917969 -6.375 C 59.71875 -3.734375 55.054688 -1.867188 52.722656 -1.867188 C 51.011719 -1.867188 50.699219 -2.175781 47.898438 -7.152344 L 31.570312 -37.792969 L 25.816406 -15.550781 C 24.726562 -11.042969 23.949219 -10.417969 20.371094 -10.417969 C 11.351562 -10.417969 3.886719 -13.0625 3.886719 -16.328125 C 3.886719 -17.261719 3.886719 -17.261719 5.289062 -22.859375 C 6.375 -27.058594 7.464844 -31.257812 8.398438 -35.304688 L 20.371094 -77.757812 L 13.996094 -76.359375 C 11.976562 -75.738281 11.976562 -75.738281 11.351562 -75.738281 C 9.488281 -75.738281 8.554688 -76.828125 8.554688 -79.316406 C 8.554688 -83.667969 12.128906 -95.023438 13.996094 -96.734375 C 16.796875 -99.375 33.746094 -102.796875 43.234375 -102.796875 C 51.632812 -102.796875 58.164062 -101.242188 63.453125 -97.820312 C 71.382812 -92.84375 75.894531 -84.914062 75.894531 -76.203125 C 75.894531 -68.429688 72.78125 -59.875 67.804688 -53.808594 C 63.917969 -49.300781 60.1875 -46.5 52.410156 -42.613281 Z M 64.230469 -22.550781 "/></g></g></g><g fill="#3d3d3d" fill-opacity="1"><g transform="translate(238.288409, 126.16515)"><g><path d="M 37.792969 -53.34375 L 44.324219 -53.03125 L 47.277344 -77.914062 Z M 14.308594 -56.921875 L 12.597656 -56.921875 C 7.308594 -56.921875 4.511719 -54.277344 2.488281 -47.433594 L 0.621094 -41.058594 C -0.15625 -38.570312 -0.464844 -36.390625 -0.464844 -34.679688 C -0.464844 -32.503906 0 -31.570312 1.554688 -30.015625 L -0.621094 -25.195312 C -2.023438 -22.394531 -2.644531 -20.0625 -2.644531 -18.195312 C -2.644531 -16.175781 -1.710938 -14.464844 0.3125 -12.753906 L 8.863281 -5.753906 C 12.128906 -2.953125 20.371094 0.15625 24.417969 0.15625 C 27.371094 0.15625 28.148438 -0.777344 31.414062 -7.621094 L 37.945312 -21.460938 L 39.347656 -21.460938 L 39.191406 -17.105469 C 39.191406 -12.753906 39.96875 -11.042969 42.613281 -9.019531 L 52.097656 -1.554688 C 54.433594 0.15625 56.140625 0.621094 61.429688 0.621094 C 70.605469 0.621094 72.003906 -0.777344 72.472656 -9.332031 L 73.558594 -32.660156 C 73.714844 -38.414062 74.027344 -50.234375 74.027344 -55.675781 C 74.027344 -67.027344 73.871094 -75.425781 73.558594 -79.316406 C 72.9375 -85.222656 72.78125 -85.691406 68.429688 -92.378906 C 64.851562 -97.664062 63.761719 -98.910156 61.273438 -100 C 58.476562 -101.398438 48.832031 -103.265625 45.257812 -103.265625 C 39.96875 -103.265625 37.011719 -100 29.859375 -86.3125 Z M 27.527344 -76.515625 C 31.105469 -83.515625 36.859375 -93.933594 38.878906 -97.199219 C 40.589844 -99.6875 42.457031 -100.777344 45.101562 -100.777344 C 50.078125 -100.777344 60.964844 -97.976562 62.519531 -96.421875 C 64.074219 -94.554688 64.539062 -88.023438 64.539062 -65.628906 C 64.539062 -60.496094 64.386719 -56.765625 63.761719 -43.546875 L 62.675781 -18.972656 C 62.363281 -10.574219 61.429688 -9.796875 52.097656 -9.796875 C 44.632812 -9.796875 41.835938 -11.664062 41.835938 -16.640625 L 41.988281 -18.039062 L 43.078125 -41.523438 L 40.589844 -36.546875 C 38.570312 -32.503906 38.101562 -32.035156 33.28125 -32.035156 L 28.769531 -31.882812 L 21.460938 -16.640625 C 18.972656 -11.664062 17.882812 -10.574219 15.085938 -10.574219 C 13.0625 -10.574219 9.796875 -11.507812 5.597656 -13.21875 C 1.554688 -14.773438 0 -16.328125 0 -18.507812 C 0 -20.0625 0.621094 -22.238281 1.867188 -24.726562 L 5.289062 -31.726562 C 2.953125 -32.191406 2.023438 -32.96875 2.023438 -34.679688 C 2.023438 -35.613281 2.175781 -36.234375 3.109375 -39.65625 L 4.976562 -46.34375 C 6.6875 -52.566406 8.242188 -54.277344 12.753906 -54.277344 C 13.375 -54.277344 14.464844 -54.277344 16.175781 -54.121094 Z M 27.527344 -76.515625 "/></g></g></g><g fill="#3d3d3d" fill-opacity="1"><g transform="translate(316.511704, 126.16515)"><g><path d="M 55.210938 -86.46875 L 48.210938 -96.886719 C 46.1875 -99.6875 44.476562 -101.085938 41.523438 -102.019531 C 38.101562 -103.265625 33.746094 -104.199219 31.105469 -104.199219 C 27.683594 -104.199219 24.726562 -102.644531 23.171875 -100 C 22.082031 -98.289062 21.152344 -95.488281 19.128906 -88.644531 L 13.0625 -68.273438 C 8.085938 -67.339844 6.53125 -66.09375 4.820312 -61.585938 C 2.953125 -56.296875 1.554688 -50.234375 1.554688 -46.964844 C 1.554688 -43.390625 2.800781 -41.367188 5.753906 -40.28125 L 1.398438 -23.171875 C 0.621094 -20.0625 0.464844 -18.816406 0.464844 -17.261719 C 0.464844 -15.085938 1.246094 -13.21875 2.800781 -12.128906 L 12.285156 -4.820312 C 15.242188 -2.488281 22.082031 -0.621094 27.527344 -0.621094 C 32.035156 -0.621094 33.4375 -2.332031 35.925781 -10.730469 C 36.234375 -11.820312 36.546875 -13.0625 37.011719 -14.152344 L 37.480469 -15.707031 C 38.257812 -12.753906 39.191406 -11.351562 40.902344 -10.109375 L 50.234375 -3.734375 C 54.121094 -0.933594 55.832031 -0.621094 64.230469 -0.621094 C 69.363281 -0.621094 70.605469 -1.710938 72.003906 -7.464844 C 72.316406 -8.242188 72.628906 -9.796875 73.40625 -12.285156 L 75.425781 -19.285156 L 79.46875 -33.59375 L 83.667969 -49.453125 C 91.445312 -78.070312 92.066406 -80.871094 92.066406 -83.980469 C 92.066406 -85.222656 91.601562 -86.46875 90.667969 -87.867188 L 83.824219 -97.820312 C 82.582031 -99.6875 81.492188 -100.464844 78.539062 -101.710938 C 75.269531 -103.109375 69.207031 -104.351562 66.25 -104.351562 C 61.898438 -104.351562 59.71875 -102.175781 58.007812 -96.421875 Z M 50.078125 -54.121094 L 45.257812 -46.34375 C 42.769531 -42.457031 41.679688 -41.988281 37.324219 -41.988281 L 30.949219 -42.144531 L 25.195312 -18.664062 C 23.640625 -12.128906 22.238281 -10.574219 18.195312 -10.574219 C 14.617188 -10.574219 9.332031 -11.664062 6.222656 -12.90625 C 3.886719 -13.839844 2.953125 -14.929688 2.953125 -16.484375 C 2.953125 -17.574219 3.578125 -20.527344 4.199219 -23.328125 L 9.019531 -42.144531 C 5.597656 -42.613281 4.042969 -44.011719 4.042969 -46.8125 C 4.042969 -50.386719 6.066406 -58.476562 7.929688 -62.207031 C 9.332031 -64.851562 10.417969 -65.316406 15.242188 -65.472656 L 21.460938 -87.558594 C 24.261719 -97.042969 24.261719 -97.042969 24.882812 -98.132812 C 26.28125 -100.464844 28.304688 -101.554688 31.105469 -101.554688 C 33.28125 -101.554688 37.167969 -100.621094 41.210938 -99.222656 C 44.011719 -98.289062 45.722656 -96.421875 45.722656 -94.089844 C 45.722656 -92.535156 45.410156 -91.132812 43.855469 -86.46875 L 37.480469 -65.164062 L 52.410156 -64.851562 L 60.496094 -95.488281 C 61.898438 -100.621094 62.675781 -101.710938 65.316406 -101.710938 C 69.050781 -101.710938 76.203125 -100 79.160156 -98.445312 C 81.335938 -97.355469 82.269531 -95.644531 82.269531 -93.3125 C 82.269531 -90.824219 81.492188 -87.867188 76.671875 -70.292969 L 72.160156 -52.722656 C 70.761719 -47.277344 69.207031 -41.523438 67.339844 -35.148438 C 65.316406 -27.992188 63.917969 -23.015625 63.453125 -21.304688 C 60.652344 -10.886719 60.339844 -10.574219 53.34375 -10.574219 C 45.410156 -10.574219 40.125 -12.597656 40.125 -15.707031 C 40.125 -16.328125 40.28125 -17.417969 40.589844 -18.664062 Z M 50.078125 -54.121094 "/></g></g></g><g fill="#3d3d3d" fill-opacity="1"><g transform="translate(404.065826, 126.16515)"><g><path d="M 47.121094 -98.910156 C 45.101562 -102.019531 38.257812 -104.199219 30.328125 -104.199219 C 25.503906 -104.199219 23.484375 -103.730469 21.773438 -101.863281 C 19.75 -100 19.75 -100 16.484375 -89.734375 L 14.929688 -84.601562 C 10.730469 -70.605469 9.175781 -65.164062 6.066406 -52.875 C 4.199219 -45.257812 2.800781 -39.5 2.488281 -38.414062 C -0.777344 -25.972656 -1.710938 -21.304688 -1.710938 -18.507812 C -1.710938 -15.242188 -0.621094 -13.375 2.332031 -11.351562 L 11.820312 -4.664062 C 15.707031 -2.023438 20.996094 -0.464844 26.75 -0.464844 C 30.480469 -0.464844 32.96875 -1.246094 33.902344 -2.953125 C 34.523438 -4.042969 35.304688 -6.6875 37.167969 -14.617188 L 38.257812 -18.972656 C 42.144531 -35.613281 48.523438 -60.496094 53.1875 -76.203125 C 54.898438 -81.957031 55.363281 -83.824219 55.363281 -84.757812 C 55.363281 -85.691406 54.898438 -87.402344 54.433594 -88.023438 Z M 5.597656 -38.722656 C 10.574219 -59.097656 13.839844 -71.226562 17.882812 -84.292969 C 20.0625 -91.289062 20.21875 -91.445312 20.683594 -93.3125 C 22.859375 -100.621094 24.105469 -101.710938 29.238281 -101.710938 C 33.59375 -101.710938 38.101562 -101.085938 41.835938 -99.84375 C 44.945312 -98.753906 46.035156 -97.511719 46.035156 -94.867188 C 46.035156 -93.46875 46.035156 -93.46875 43.855469 -86.3125 C 39.8125 -73.09375 36.390625 -59.875 30.480469 -36.390625 C 29.703125 -33.4375 28.925781 -30.328125 28.304688 -27.371094 C 28.148438 -26.59375 27.527344 -24.261719 26.75 -21.460938 C 26.28125 -19.59375 25.972656 -18.039062 25.972656 -17.882812 C 24.417969 -11.664062 23.328125 -10.574219 18.507812 -10.574219 C 14.152344 -10.574219 8.554688 -11.664062 5.597656 -12.90625 C 2.332031 -14.308594 1.089844 -16.019531 1.089844 -18.507812 C 1.089844 -20.527344 1.089844 -20.839844 3.578125 -30.792969 Z M 5.597656 -38.722656 "/></g></g></g><g fill="#3d3d3d" fill-opacity="1"><g transform="translate(453.830065, 126.16515)"><g><path d="M 59.875 -75.425781 L 59.410156 -80.246094 C 59.097656 -85.378906 58.941406 -86.003906 57.386719 -88.335938 L 51.789062 -97.042969 C 48.988281 -101.554688 41.058594 -104.507812 31.726562 -104.507812 C 24.726562 -104.507812 23.328125 -102.953125 18.507812 -89.421875 C 13.839844 -76.980469 5.289062 -48.523438 0.621094 -29.703125 C -1.710938 -20.371094 -2.023438 -18.664062 -2.023438 -16.953125 C -2.023438 -15.085938 -1.089844 -13.21875 0.464844 -11.976562 L 9.019531 -5.289062 C 12.597656 -2.488281 18.664062 -0.621094 24.261719 -0.621094 C 27.527344 -0.621094 28.925781 -2.023438 30.171875 -6.222656 L 32.191406 -12.285156 L 40.125 -5.597656 C 44.167969 -2.175781 48.523438 -0.621094 53.808594 -0.621094 C 58.628906 -0.621094 60.339844 -1.398438 62.207031 -4.664062 L 67.183594 -13.6875 C 67.960938 -12.441406 69.050781 -11.351562 70.917969 -9.796875 L 79.003906 -3.886719 C 82.113281 -1.554688 85.691406 -0.621094 92.066406 -0.621094 C 98.132812 -0.621094 100.464844 -2.644531 100.933594 -8.398438 L 108.398438 -79.625 C 108.707031 -82.582031 108.707031 -82.582031 108.707031 -83.359375 C 108.707031 -84.601562 108.398438 -85.691406 107.621094 -86.933594 L 100.621094 -97.820312 C 99.375 -99.6875 97.664062 -100.933594 94.710938 -101.863281 C 90.824219 -103.265625 85.070312 -104.351562 81.957031 -104.351562 C 77.136719 -104.351562 74.339844 -101.398438 67.183594 -88.492188 Z M 63.761719 -77.136719 C 66.5625 -82.890625 70.605469 -90.046875 75.117188 -97.042969 C 77.757812 -100.933594 79.160156 -102.019531 81.804688 -102.019531 C 84.757812 -102.019531 90.511719 -100.777344 93.777344 -99.53125 C 97.664062 -97.820312 98.910156 -96.421875 98.910156 -93.46875 C 98.910156 -91.601562 98.910156 -90.667969 98.753906 -89.113281 L 91.910156 -20.839844 C 90.980469 -12.597656 89.421875 -10.730469 82.582031 -10.730469 C 74.492188 -10.730469 69.515625 -12.90625 69.363281 -16.484375 C 69.363281 -16.953125 69.363281 -17.574219 69.515625 -18.195312 L 74.183594 -48.675781 C 74.339844 -49.144531 74.648438 -50.542969 74.960938 -52.566406 L 75.738281 -56.765625 L 76.671875 -61.117188 C 74.492188 -57.074219 73.558594 -55.363281 72.628906 -53.1875 C 71.851562 -51.945312 71.226562 -50.542969 70.605469 -49.144531 L 54.585938 -18.039062 C 51.320312 -11.976562 49.765625 -10.730469 44.789062 -10.730469 C 41.367188 -10.730469 36.546875 -11.976562 34.371094 -13.53125 C 32.660156 -14.617188 32.035156 -15.707031 32.035156 -18.351562 L 31.882812 -37.945312 L 32.035156 -44.011719 L 32.191406 -50.542969 C 32.503906 -55.519531 32.503906 -58.320312 32.503906 -59.097656 L 32.503906 -62.050781 C 31.882812 -59.71875 31.414062 -58.164062 31.257812 -57.542969 L 29.546875 -50.542969 L 27.839844 -43.546875 L 25.972656 -36.082031 L 21.152344 -17.730469 C 19.75 -12.441406 18.351562 -10.886719 14.929688 -10.886719 C 12.597656 -10.886719 7.777344 -11.820312 5.132812 -12.597656 C 1.710938 -13.839844 0.464844 -15.085938 0.464844 -16.953125 C 0.464844 -20.0625 4.042969 -34.214844 9.640625 -53.652344 L 13.375 -66.40625 L 17.261719 -78.226562 C 19.285156 -85.070312 21.152344 -90.355469 22.859375 -94.554688 C 25.660156 -101.085938 26.75 -102.175781 31.570312 -102.175781 C 35.613281 -102.175781 42.144531 -100.777344 45.410156 -99.222656 C 48.832031 -97.664062 49.765625 -95.644531 49.921875 -89.269531 L 50.542969 -66.71875 L 50.542969 -65.164062 C 50.542969 -64.695312 50.542969 -62.675781 50.386719 -59.5625 C 50.234375 -54.898438 50.078125 -52.097656 49.609375 -46.035156 C 52.875 -53.808594 55.054688 -58.941406 56.140625 -61.585938 Z M 63.761719 -77.136719 "/></g></g></g><g fill="#3d3d3d" fill-opacity="1"><g transform="translate(562.067504, 126.16515)"><g/></g></g><g fill="#3d3d3d" fill-opacity="1"><g transform="translate(597.835492, 126.16515)"><g><path d="M 83.515625 -99.222656 C 82.113281 -101.398438 80.714844 -102.175781 75.425781 -104.042969 C 71.695312 -105.285156 67.339844 -106.21875 65.164062 -106.21875 C 62.050781 -106.21875 59.875 -104.507812 58.476562 -100.621094 C 55.363281 -92.6875 55.363281 -92.535156 53.34375 -88.957031 L 46.8125 -98.753906 C 44.324219 -102.488281 43.855469 -102.953125 41.210938 -103.886719 C 37.636719 -105.285156 31.726562 -106.375 27.214844 -106.375 C 21.304688 -106.375 19.75 -104.507812 17.417969 -95.644531 L -0.621094 -23.015625 C -1.089844 -21.617188 -1.554688 -18.351562 -1.554688 -17.417969 C -1.554688 -15.242188 -0.933594 -14.152344 1.398438 -12.597656 L 9.488281 -7 C 14.464844 -3.421875 21.773438 -1.246094 28.460938 -1.246094 C 31.105469 -1.246094 31.570312 -1.710938 32.347656 -4.976562 L 35.613281 -18.664062 L 36.546875 -17.261719 C 37.167969 -16.175781 37.792969 -15.242188 38.257812 -13.996094 C 39.191406 -12.285156 39.96875 -11.042969 40.433594 -10.265625 C 43.855469 -4.199219 44.324219 -3.578125 46.8125 -1.710938 L 56.609375 5.597656 C 57.542969 6.222656 58.320312 6.53125 59.097656 6.53125 C 60.964844 6.53125 65.164062 4.820312 68.894531 2.644531 C 73.714844 -0.3125 75.582031 -2.023438 75.582031 -3.734375 C 75.582031 -4.976562 74.804688 -6.84375 72.628906 -10.886719 C 72.160156 -11.820312 71.226562 -13.53125 70.761719 -14.152344 C 68.273438 -18.972656 65.316406 -23.949219 62.828125 -27.992188 C 60.964844 -31.257812 58.941406 -34.523438 56.921875 -37.792969 C 56.765625 -38.257812 56.140625 -39.191406 55.363281 -40.589844 C 60.339844 -42.613281 61.898438 -43.546875 64.230469 -45.101562 C 71.070312 -50.234375 79.46875 -60.1875 83.824219 -68.273438 C 87.710938 -75.425781 91.132812 -84.292969 91.132812 -86.78125 C 91.132812 -87.710938 90.824219 -88.644531 90.355469 -89.421875 Z M 62.050781 -21.460938 C 65.941406 -14.308594 65.941406 -14.308594 65.941406 -13.21875 C 65.941406 -11.976562 65.007812 -11.042969 61.585938 -8.863281 C 56.921875 -5.910156 51.476562 -3.421875 49.609375 -3.421875 C 47.433594 -3.421875 46.964844 -3.886719 40.28125 -16.328125 C 32.96875 -30.015625 31.257812 -33.28125 28.460938 -39.65625 L 22.859375 -15.242188 C 21.929688 -11.507812 21.773438 -11.351562 19.441406 -11.351562 C 15.394531 -11.351562 9.332031 -12.597656 3.886719 -14.617188 C 1.867188 -15.394531 0.933594 -16.175781 0.933594 -17.574219 C 0.933594 -18.507812 1.089844 -19.441406 1.867188 -22.394531 L 20.527344 -97.664062 C 21.773438 -102.796875 22.859375 -103.886719 26.90625 -103.886719 C 30.328125 -103.886719 36.234375 -102.796875 39.5 -101.710938 C 42.300781 -100.777344 43.699219 -99.53125 43.546875 -97.976562 C 43.546875 -97.355469 43.078125 -95.175781 42.921875 -94.246094 L 35.613281 -67.652344 C 48.523438 -74.027344 53.5 -80.246094 60.964844 -100.15625 C 61.898438 -102.953125 62.828125 -103.730469 64.851562 -103.730469 C 67.804688 -103.730469 74.183594 -102.019531 77.914062 -100.308594 C 80.714844 -98.910156 81.648438 -97.976562 81.648438 -96.578125 C 81.648438 -95.488281 80.714844 -92.535156 78.539062 -87.246094 C 75.582031 -79.78125 72.160156 -74.027344 66.71875 -67.183594 C 59.5625 -58.007812 53.652344 -53.5 45.101562 -50.234375 C 55.054688 -34.371094 55.519531 -33.4375 59.71875 -25.660156 Z M 62.050781 -21.460938 "/></g></g></g><g fill="#3d3d3d" fill-opacity="1"><g transform="translate(678.080475, 126.16515)"><g><path d="M 55.210938 -86.46875 L 48.210938 -96.886719 C 46.1875 -99.6875 44.476562 -101.085938 41.523438 -102.019531 C 38.101562 -103.265625 33.746094 -104.199219 31.105469 -104.199219 C 27.683594 -104.199219 24.726562 -102.644531 23.171875 -100 C 22.082031 -98.289062 21.152344 -95.488281 19.128906 -88.644531 L 13.0625 -68.273438 C 8.085938 -67.339844 6.53125 -66.09375 4.820312 -61.585938 C 2.953125 -56.296875 1.554688 -50.234375 1.554688 -46.964844 C 1.554688 -43.390625 2.800781 -41.367188 5.753906 -40.28125 L 1.398438 -23.171875 C 0.621094 -20.0625 0.464844 -18.816406 0.464844 -17.261719 C 0.464844 -15.085938 1.246094 -13.21875 2.800781 -12.128906 L 12.285156 -4.820312 C 15.242188 -2.488281 22.082031 -0.621094 27.527344 -0.621094 C 32.035156 -0.621094 33.4375 -2.332031 35.925781 -10.730469 C 36.234375 -11.820312 36.546875 -13.0625 37.011719 -14.152344 L 37.480469 -15.707031 C 38.257812 -12.753906 39.191406 -11.351562 40.902344 -10.109375 L 50.234375 -3.734375 C 54.121094 -0.933594 55.832031 -0.621094 64.230469 -0.621094 C 69.363281 -0.621094 70.605469 -1.710938 72.003906 -7.464844 C 72.316406 -8.242188 72.628906 -9.796875 73.40625 -12.285156 L 75.425781 -19.285156 L 79.46875 -33.59375 L 83.667969 -49.453125 C 91.445312 -78.070312 92.066406 -80.871094 92.066406 -83.980469 C 92.066406 -85.222656 91.601562 -86.46875 90.667969 -87.867188 L 83.824219 -97.820312 C 82.582031 -99.6875 81.492188 -100.464844 78.539062 -101.710938 C 75.269531 -103.109375 69.207031 -104.351562 66.25 -104.351562 C 61.898438 -104.351562 59.71875 -102.175781 58.007812 -96.421875 Z M 50.078125 -54.121094 L 45.257812 -46.34375 C 42.769531 -42.457031 41.679688 -41.988281 37.324219 -41.988281 L 30.949219 -42.144531 L 25.195312 -18.664062 C 23.640625 -12.128906 22.238281 -10.574219 18.195312 -10.574219 C 14.617188 -10.574219 9.332031 -11.664062 6.222656 -12.90625 C 3.886719 -13.839844 2.953125 -14.929688 2.953125 -16.484375 C 2.953125 -17.574219 3.578125 -20.527344 4.199219 -23.328125 L 9.019531 -42.144531 C 5.597656 -42.613281 4.042969 -44.011719 4.042969 -46.8125 C 4.042969 -50.386719 6.066406 -58.476562 7.929688 -62.207031 C 9.332031 -64.851562 10.417969 -65.316406 15.242188 -65.472656 L 21.460938 -87.558594 C 24.261719 -97.042969 24.261719 -97.042969 24.882812 -98.132812 C 26.28125 -100.464844 28.304688 -101.554688 31.105469 -101.554688 C 33.28125 -101.554688 37.167969 -100.621094 41.210938 -99.222656 C 44.011719 -98.289062 45.722656 -96.421875 45.722656 -94.089844 C 45.722656 -92.535156 45.410156 -91.132812 43.855469 -86.46875 L 37.480469 -65.164062 L 52.410156 -64.851562 L 60.496094 -95.488281 C 61.898438 -100.621094 62.675781 -101.710938 65.316406 -101.710938 C 69.050781 -101.710938 76.203125 -100 79.160156 -98.445312 C 81.335938 -97.355469 82.269531 -95.644531 82.269531 -93.3125 C 82.269531 -90.824219 81.492188 -87.867188 76.671875 -70.292969 L 72.160156 -52.722656 C 70.761719 -47.277344 69.207031 -41.523438 67.339844 -35.148438 C 65.316406 -27.992188 63.917969 -23.015625 63.453125 -21.304688 C 60.652344 -10.886719 60.339844 -10.574219 53.34375 -10.574219 C 45.410156 -10.574219 40.125 -12.597656 40.125 -15.707031 C 40.125 -16.328125 40.28125 -17.417969 40.589844 -18.664062 Z M 50.078125 -54.121094 "/></g></g></g><g fill="#3d3d3d" fill-opacity="1"><g transform="translate(765.634573, 126.16515)"><g><path d="M 37.792969 -53.34375 L 44.324219 -53.03125 L 47.277344 -77.914062 Z M 14.308594 -56.921875 L 12.597656 -56.921875 C 7.308594 -56.921875 4.511719 -54.277344 2.488281 -47.433594 L 0.621094 -41.058594 C -0.15625 -38.570312 -0.464844 -36.390625 -0.464844 -34.679688 C -0.464844 -32.503906 0 -31.570312 1.554688 -30.015625 L -0.621094 -25.195312 C -2.023438 -22.394531 -2.644531 -20.0625 -2.644531 -18.195312 C -2.644531 -16.175781 -1.710938 -14.464844 0.3125 -12.753906 L 8.863281 -5.753906 C 12.128906 -2.953125 20.371094 0.15625 24.417969 0.15625 C 27.371094 0.15625 28.148438 -0.777344 31.414062 -7.621094 L 37.945312 -21.460938 L 39.347656 -21.460938 L 39.191406 -17.105469 C 39.191406 -12.753906 39.96875 -11.042969 42.613281 -9.019531 L 52.097656 -1.554688 C 54.433594 0.15625 56.140625 0.621094 61.429688 0.621094 C 70.605469 0.621094 72.003906 -0.777344 72.472656 -9.332031 L 73.558594 -32.660156 C 73.714844 -38.414062 74.027344 -50.234375 74.027344 -55.675781 C 74.027344 -67.027344 73.871094 -75.425781 73.558594 -79.316406 C 72.9375 -85.222656 72.78125 -85.691406 68.429688 -92.378906 C 64.851562 -97.664062 63.761719 -98.910156 61.273438 -100 C 58.476562 -101.398438 48.832031 -103.265625 45.257812 -103.265625 C 39.96875 -103.265625 37.011719 -100 29.859375 -86.3125 Z M 27.527344 -76.515625 C 31.105469 -83.515625 36.859375 -93.933594 38.878906 -97.199219 C 40.589844 -99.6875 42.457031 -100.777344 45.101562 -100.777344 C 50.078125 -100.777344 60.964844 -97.976562 62.519531 -96.421875 C 64.074219 -94.554688 64.539062 -88.023438 64.539062 -65.628906 C 64.539062 -60.496094 64.386719 -56.765625 63.761719 -43.546875 L 62.675781 -18.972656 C 62.363281 -10.574219 61.429688 -9.796875 52.097656 -9.796875 C 44.632812 -9.796875 41.835938 -11.664062 41.835938 -16.640625 L 41.988281 -18.039062 L 43.078125 -41.523438 L 40.589844 -36.546875 C 38.570312 -32.503906 38.101562 -32.035156 33.28125 -32.035156 L 28.769531 -31.882812 L 21.460938 -16.640625 C 18.972656 -11.664062 17.882812 -10.574219 15.085938 -10.574219 C 13.0625 -10.574219 9.796875 -11.507812 5.597656 -13.21875 C 1.554688 -14.773438 0 -16.328125 0 -18.507812 C 0 -20.0625 0.621094 -22.238281 1.867188 -24.726562 L 5.289062 -31.726562 C 2.953125 -32.191406 2.023438 -32.96875 2.023438 -34.679688 C 2.023438 -35.613281 2.175781 -36.234375 3.109375 -39.65625 L 4.976562 -46.34375 C 6.6875 -52.566406 8.242188 -54.277344 12.753906 -54.277344 C 13.375 -54.277344 14.464844 -54.277344 16.175781 -54.121094 Z M 27.527344 -76.515625 "/></g></g></g><g fill="#3d3d3d" fill-opacity="1"><g transform="translate(843.857823, 126.16515)"><g><path d="M 39.8125 -36.082031 L 52.722656 -82.113281 C 53.03125 -83.359375 53.34375 -84.601562 53.34375 -85.222656 C 53.34375 -86.78125 53.03125 -87.402344 48.523438 -94.867188 C 45.410156 -100.621094 45.410156 -100.621094 42.613281 -101.863281 C 38.101562 -103.730469 31.414062 -105.132812 27.214844 -105.132812 C 22.394531 -105.132812 20.527344 -103.574219 18.816406 -97.976562 C 16.953125 -92.378906 15.550781 -87.246094 14.773438 -84.292969 L 4.820312 -47.121094 C 2.644531 -39.347656 1.089844 -31.726562 1.089844 -29.703125 C 1.089844 -25.039062 7.464844 -14.152344 12.597656 -10.265625 L 23.328125 -1.867188 C 24.417969 -0.933594 25.503906 -0.621094 27.839844 -0.621094 L 52.253906 -0.621094 C 57.542969 -1.246094 58.164062 -2.023438 61.429688 -14.308594 C 62.675781 -19.90625 62.675781 -19.90625 62.675781 -20.371094 C 62.675781 -20.996094 62.363281 -21.929688 61.742188 -22.707031 L 54.742188 -33.902344 C 53.5 -35.613281 52.566406 -36.082031 50.078125 -36.082031 Z M 26.90625 -33.28125 L 50.078125 -33.746094 C 52.097656 -33.746094 53.34375 -32.816406 53.34375 -31.257812 C 53.34375 -27.992188 50.386719 -17.882812 48.367188 -13.839844 C 46.964844 -11.507812 45.410156 -10.730469 41.367188 -10.886719 L 19.128906 -11.042969 C 14.929688 -11.042969 14.617188 -11.199219 11.507812 -15.085938 C 7.308594 -20.0625 3.578125 -27.058594 3.578125 -29.703125 C 3.578125 -31.414062 6.6875 -45.566406 8.710938 -53.03125 L 15.707031 -78.070312 C 18.351562 -88.023438 18.507812 -88.957031 19.285156 -91.601562 L 20.527344 -95.332031 C 22.394531 -102.019531 23.015625 -102.796875 26.59375 -102.796875 C 29.546875 -102.796875 34.058594 -101.863281 39.191406 -100.308594 C 43.390625 -99.066406 44.167969 -98.289062 44.167969 -96.265625 C 44.167969 -95.332031 44.167969 -95.332031 43.390625 -92.378906 Z M 26.90625 -33.28125 "/></g></g></g><g fill="#3d3d3d" fill-opacity="1"><g transform="translate(906.996287, 126.16515)"><g><path d="M 47.121094 -98.910156 C 45.101562 -102.019531 38.257812 -104.199219 30.328125 -104.199219 C 25.503906 -104.199219 23.484375 -103.730469 21.773438 -101.863281 C 19.75 -100 19.75 -100 16.484375 -89.734375 L 14.929688 -84.601562 C 10.730469 -70.605469 9.175781 -65.164062 6.066406 -52.875 C 4.199219 -45.257812 2.800781 -39.5 2.488281 -38.414062 C -0.777344 -25.972656 -1.710938 -21.304688 -1.710938 -18.507812 C -1.710938 -15.242188 -0.621094 -13.375 2.332031 -11.351562 L 11.820312 -4.664062 C 15.707031 -2.023438 20.996094 -0.464844 26.75 -0.464844 C 30.480469 -0.464844 32.96875 -1.246094 33.902344 -2.953125 C 34.523438 -4.042969 35.304688 -6.6875 37.167969 -14.617188 L 38.257812 -18.972656 C 42.144531 -35.613281 48.523438 -60.496094 53.1875 -76.203125 C 54.898438 -81.957031 55.363281 -83.824219 55.363281 -84.757812 C 55.363281 -85.691406 54.898438 -87.402344 54.433594 -88.023438 Z M 5.597656 -38.722656 C 10.574219 -59.097656 13.839844 -71.226562 17.882812 -84.292969 C 20.0625 -91.289062 20.21875 -91.445312 20.683594 -93.3125 C 22.859375 -100.621094 24.105469 -101.710938 29.238281 -101.710938 C 33.59375 -101.710938 38.101562 -101.085938 41.835938 -99.84375 C 44.945312 -98.753906 46.035156 -97.511719 46.035156 -94.867188 C 46.035156 -93.46875 46.035156 -93.46875 43.855469 -86.3125 C 39.8125 -73.09375 36.390625 -59.875 30.480469 -36.390625 C 29.703125 -33.4375 28.925781 -30.328125 28.304688 -27.371094 C 28.148438 -26.59375 27.527344 -24.261719 26.75 -21.460938 C 26.28125 -19.59375 25.972656 -18.039062 25.972656 -17.882812 C 24.417969 -11.664062 23.328125 -10.574219 18.507812 -10.574219 C 14.152344 -10.574219 8.554688 -11.664062 5.597656 -12.90625 C 2.332031 -14.308594 1.089844 -16.019531 1.089844 -18.507812 C 1.089844 -20.527344 1.089844 -20.839844 3.578125 -30.792969 Z M 5.597656 -38.722656 "/></g></g></g><g fill="#3d3d3d" fill-opacity="1"><g transform="translate(956.760572, 126.16515)"><g><path d="M 39.8125 -36.082031 L 52.722656 -82.113281 C 53.03125 -83.359375 53.34375 -84.601562 53.34375 -85.222656 C 53.34375 -86.78125 53.03125 -87.402344 48.523438 -94.867188 C 45.410156 -100.621094 45.410156 -100.621094 42.613281 -101.863281 C 38.101562 -103.730469 31.414062 -105.132812 27.214844 -105.132812 C 22.394531 -105.132812 20.527344 -103.574219 18.816406 -97.976562 C 16.953125 -92.378906 15.550781 -87.246094 14.773438 -84.292969 L 4.820312 -47.121094 C 2.644531 -39.347656 1.089844 -31.726562 1.089844 -29.703125 C 1.089844 -25.039062 7.464844 -14.152344 12.597656 -10.265625 L 23.328125 -1.867188 C 24.417969 -0.933594 25.503906 -0.621094 27.839844 -0.621094 L 52.253906 -0.621094 C 57.542969 -1.246094 58.164062 -2.023438 61.429688 -14.308594 C 62.675781 -19.90625 62.675781 -19.90625 62.675781 -20.371094 C 62.675781 -20.996094 62.363281 -21.929688 61.742188 -22.707031 L 54.742188 -33.902344 C 53.5 -35.613281 52.566406 -36.082031 50.078125 -36.082031 Z M 26.90625 -33.28125 L 50.078125 -33.746094 C 52.097656 -33.746094 53.34375 -32.816406 53.34375 -31.257812 C 53.34375 -27.992188 50.386719 -17.882812 48.367188 -13.839844 C 46.964844 -11.507812 45.410156 -10.730469 41.367188 -10.886719 L 19.128906 -11.042969 C 14.929688 -11.042969 14.617188 -11.199219 11.507812 -15.085938 C 7.308594 -20.0625 3.578125 -27.058594 3.578125 -29.703125 C 3.578125 -31.414062 6.6875 -45.566406 8.710938 -53.03125 L 15.707031 -78.070312 C 18.351562 -88.023438 18.507812 -88.957031 19.285156 -91.601562 L 20.527344 -95.332031 C 22.394531 -102.019531 23.015625 -102.796875 26.59375 -102.796875 C 29.546875 -102.796875 34.058594 -101.863281 39.191406 -100.308594 C 43.390625 -99.066406 44.167969 -98.289062 44.167969 -96.265625 C 44.167969 -95.332031 44.167969 -95.332031 43.390625 -92.378906 Z M 26.90625 -33.28125 "/></g></g></g></svg>
