<svg xmlns="http://www.w3.org/2000/svg" xmlns:xlink="http://www.w3.org/1999/xlink" width="1366" zoomAndPan="magnify" viewBox="0 0 1024.5 576" height="768" preserveAspectRatio="xMidYMid meet" version="1.0"><defs><g/></defs><g fill="#737373" fill-opacity="1"><g transform="translate(-13.362532, 345.836313)"><g><path d="M 34.140625 -45.765625 L 34.140625 -17.25 L 83.90625 -17.25 L 83.90625 0 L 13.546875 0 L 13.546875 -104.21875 L 82.765625 -104.21875 L 82.765625 -86.96875 L 34.140625 -86.96875 L 34.140625 -62.59375 L 76.640625 -62.59375 L 76.640625 -45.765625 Z M 34.140625 -45.765625 "/></g></g></g><g fill="#737373" fill-opacity="1"><g transform="translate(76.245744, 345.836313)"><g><path d="M 54.96875 1.5 C 44.9375 1.5 37.472656 -2.253906 32.578125 -9.765625 L 31.078125 -9.484375 L 31.078125 0 L 11.328125 0 L 11.328125 -110.21875 L 31.078125 -110.21875 L 31.078125 -69.359375 L 32.578125 -69.078125 C 35.285156 -72.835938 38.476562 -75.617188 42.15625 -77.421875 C 45.84375 -79.222656 50.253906 -80.125 55.390625 -80.125 C 61.753906 -80.125 67.3125 -78.625 72.0625 -75.625 C 76.820312 -72.632812 80.53125 -68.085938 83.1875 -61.984375 C 85.851562 -55.878906 87.1875 -48.3125 87.1875 -39.28125 C 87.1875 -30.34375 85.804688 -22.820312 83.046875 -16.71875 C 80.296875 -10.613281 76.492188 -6.050781 71.640625 -3.03125 C 66.796875 -0.0078125 61.238281 1.5 54.96875 1.5 Z M 48.96875 -15.25 C 54.769531 -15.25 59.191406 -17.1875 62.234375 -21.0625 C 65.273438 -24.9375 66.796875 -31.007812 66.796875 -39.28125 C 66.796875 -47.59375 65.273438 -53.6875 62.234375 -57.5625 C 59.191406 -61.4375 54.769531 -63.375 48.96875 -63.375 C 43.414062 -63.375 39.007812 -61.378906 35.75 -57.390625 C 32.5 -53.398438 30.875 -47.363281 30.875 -39.28125 C 30.875 -31.195312 32.5 -25.171875 35.75 -21.203125 C 39.007812 -17.234375 43.414062 -15.25 48.96875 -15.25 Z M 48.96875 -15.25 "/></g></g></g><g fill="#737373" fill-opacity="1"><g transform="translate(170.416414, 345.836313)"><g><path d="M 11.328125 0 L 11.328125 -78.625 L 30.515625 -78.625 L 30.515625 -66.9375 L 32.015625 -66.65625 C 33.910156 -71.03125 36.398438 -74.238281 39.484375 -76.28125 C 42.578125 -78.320312 46.335938 -79.34375 50.765625 -79.34375 C 55.222656 -79.34375 58.617188 -78.582031 60.953125 -77.0625 L 57.609375 -60.03125 L 56.109375 -59.734375 C 54.828125 -60.265625 53.585938 -60.644531 52.390625 -60.875 C 51.203125 -61.113281 49.753906 -61.234375 48.046875 -61.234375 C 42.535156 -61.234375 38.328125 -59.296875 35.421875 -55.421875 C 32.523438 -51.554688 31.078125 -45.34375 31.078125 -36.78125 L 31.078125 0 Z M 11.328125 0 "/></g></g></g><g fill="#737373" fill-opacity="1"><g transform="translate(232.080025, 345.836313)"><g><path d="M 30.65625 1.5 C 25.613281 1.5 21.238281 0.570312 17.53125 -1.28125 C 13.832031 -3.132812 10.984375 -5.851562 8.984375 -9.4375 C 6.984375 -13.03125 5.984375 -17.347656 5.984375 -22.390625 C 5.984375 -27.046875 6.984375 -30.953125 8.984375 -34.109375 C 10.984375 -37.273438 14.070312 -39.863281 18.25 -41.875 C 22.4375 -43.894531 27.898438 -45.453125 34.640625 -46.546875 C 39.347656 -47.304688 42.925781 -48.140625 45.375 -49.046875 C 47.820312 -49.953125 49.472656 -50.972656 50.328125 -52.109375 C 51.179688 -53.253906 51.609375 -54.707031 51.609375 -56.46875 C 51.609375 -58.976562 50.726562 -60.898438 48.96875 -62.234375 C 47.21875 -63.566406 44.296875 -64.234375 40.203125 -64.234375 C 35.835938 -64.234375 31.679688 -63.257812 27.734375 -61.3125 C 23.785156 -59.363281 20.363281 -56.796875 17.46875 -53.609375 L 16.046875 -53.609375 L 7.765625 -66.078125 C 11.765625 -70.503906 16.640625 -73.953125 22.390625 -76.421875 C 28.140625 -78.890625 34.410156 -80.125 41.203125 -80.125 C 51.609375 -80.125 59.140625 -77.914062 63.796875 -73.5 C 68.460938 -69.082031 70.796875 -62.804688 70.796875 -54.671875 L 70.796875 -20.53125 C 70.796875 -17.007812 72.335938 -15.25 75.421875 -15.25 C 76.609375 -15.25 77.773438 -15.460938 78.921875 -15.890625 L 79.921875 -15.609375 L 81.34375 -1.859375 C 80.25 -1.140625 78.726562 -0.550781 76.78125 -0.09375 C 74.832031 0.351562 72.691406 0.578125 70.359375 0.578125 C 65.660156 0.578125 61.988281 -0.320312 59.34375 -2.125 C 56.707031 -3.9375 54.820312 -6.769531 53.6875 -10.625 L 52.1875 -10.765625 C 48.332031 -2.585938 41.15625 1.5 30.65625 1.5 Z M 36.921875 -13.265625 C 41.484375 -13.265625 45.128906 -14.796875 47.859375 -17.859375 C 50.597656 -20.921875 51.96875 -25.1875 51.96875 -30.65625 L 51.96875 -38.640625 L 50.609375 -38.921875 C 49.421875 -37.972656 47.863281 -37.175781 45.9375 -36.53125 C 44.019531 -35.894531 41.253906 -35.265625 37.640625 -34.640625 C 33.359375 -33.929688 30.28125 -32.707031 28.40625 -30.96875 C 26.53125 -29.238281 25.59375 -26.78125 25.59375 -23.59375 C 25.59375 -20.21875 26.585938 -17.648438 28.578125 -15.890625 C 30.578125 -14.140625 33.359375 -13.265625 36.921875 -13.265625 Z M 36.921875 -13.265625 "/></g></g></g><g fill="#737373" fill-opacity="1"><g transform="translate(314.987283, 345.836313)"><g><path d="M 11.328125 0 L 11.328125 -110.21875 L 31.078125 -110.21875 L 31.078125 -68.359375 L 32.578125 -68.078125 C 35.191406 -71.929688 38.398438 -74.898438 42.203125 -76.984375 C 46.003906 -79.078125 50.59375 -80.125 55.96875 -80.125 C 73.3125 -80.125 81.984375 -70.285156 81.984375 -50.609375 L 81.984375 0 L 62.234375 0 L 62.234375 -48.125 C 62.234375 -53.488281 61.160156 -57.382812 59.015625 -59.8125 C 56.878906 -62.238281 53.554688 -63.453125 49.046875 -63.453125 C 43.535156 -63.453125 39.160156 -61.609375 35.921875 -57.921875 C 32.691406 -54.234375 31.078125 -48.492188 31.078125 -40.703125 L 31.078125 0 Z M 11.328125 0 "/></g></g></g><g fill="#737373" fill-opacity="1"><g transform="translate(407.090618, 345.836313)"><g><path d="M 21.171875 -88.046875 C 17.609375 -88.046875 14.707031 -89.125 12.46875 -91.28125 C 10.238281 -93.445312 9.125 -96.238281 9.125 -99.65625 C 9.125 -103.03125 10.238281 -105.800781 12.46875 -107.96875 C 14.707031 -110.132812 17.609375 -111.21875 21.171875 -111.21875 C 23.546875 -111.21875 25.660156 -110.71875 27.515625 -109.71875 C 29.367188 -108.71875 30.804688 -107.347656 31.828125 -105.609375 C 32.847656 -103.878906 33.359375 -101.894531 33.359375 -99.65625 C 33.359375 -97.425781 32.847656 -95.429688 31.828125 -93.671875 C 30.804688 -91.910156 29.367188 -90.53125 27.515625 -89.53125 C 25.660156 -88.539062 23.546875 -88.046875 21.171875 -88.046875 Z M 11.328125 0 L 11.328125 -78.625 L 31.078125 -78.625 L 31.078125 0 Z M 11.328125 0 "/></g></g></g><g fill="#737373" fill-opacity="1"><g transform="translate(449.435341, 345.836313)"><g><path d="M 11.328125 0 L 11.328125 -78.625 L 30.296875 -78.625 L 30.296875 -68.078125 L 31.796875 -67.796875 C 34.359375 -72.023438 37.363281 -75.132812 40.8125 -77.125 C 44.257812 -79.125 48.664062 -80.125 54.03125 -80.125 C 59.976562 -80.125 64.753906 -78.945312 68.359375 -76.59375 C 71.972656 -74.25 74.613281 -70.816406 76.28125 -66.296875 L 77.78125 -66.296875 C 80.195312 -71.003906 83.316406 -74.484375 87.140625 -76.734375 C 90.972656 -78.992188 95.738281 -80.125 101.4375 -80.125 C 117.738281 -80.125 125.890625 -71.046875 125.890625 -52.890625 L 125.890625 0 L 106.15625 0 L 106.15625 -50.40625 C 106.15625 -55.007812 105.25 -58.332031 103.4375 -60.375 C 101.632812 -62.425781 98.738281 -63.453125 94.75 -63.453125 C 83.90625 -63.453125 78.484375 -56.203125 78.484375 -41.703125 L 78.484375 0 L 58.75 0 L 58.75 -50.40625 C 58.75 -55.007812 57.832031 -58.332031 56 -60.375 C 54.164062 -62.425781 51.253906 -63.453125 47.265625 -63.453125 C 42.179688 -63.453125 38.210938 -61.75 35.359375 -58.34375 C 32.503906 -54.945312 31.078125 -49.539062 31.078125 -42.125 L 31.078125 0 Z M 11.328125 0 "/></g></g></g><g fill="#737373" fill-opacity="1"><g transform="translate(585.45172, 345.836313)"><g/></g></g><g fill="#737373" fill-opacity="1"><g transform="translate(619.88357, 345.836313)"><g><path d="M 13.546875 0 L 13.546875 -104.21875 L 34.140625 -104.21875 L 34.140625 -61.671875 L 36.421875 -61.671875 L 71.21875 -104.21875 L 92.3125 -104.21875 L 92.3125 -102.4375 L 53.96875 -55.03125 L 96.3125 -1.78125 L 96.3125 0 L 73 0 L 36.421875 -44.984375 L 34.140625 -44.984375 L 34.140625 0 Z M 13.546875 0 "/></g></g></g><g fill="#737373" fill-opacity="1"><g transform="translate(716.192893, 345.836313)"><g><path d="M 11.328125 0 L 11.328125 -110.21875 L 31.078125 -110.21875 L 31.078125 -68.359375 L 32.578125 -68.078125 C 35.191406 -71.929688 38.398438 -74.898438 42.203125 -76.984375 C 46.003906 -79.078125 50.59375 -80.125 55.96875 -80.125 C 73.3125 -80.125 81.984375 -70.285156 81.984375 -50.609375 L 81.984375 0 L 62.234375 0 L 62.234375 -48.125 C 62.234375 -53.488281 61.160156 -57.382812 59.015625 -59.8125 C 56.878906 -62.238281 53.554688 -63.453125 49.046875 -63.453125 C 43.535156 -63.453125 39.160156 -61.609375 35.921875 -57.921875 C 32.691406 -54.234375 31.078125 -48.492188 31.078125 -40.703125 L 31.078125 0 Z M 11.328125 0 "/></g></g></g><g fill="#737373" fill-opacity="1"><g transform="translate(808.296227, 345.836313)"><g><path d="M 30.65625 1.5 C 25.613281 1.5 21.238281 0.570312 17.53125 -1.28125 C 13.832031 -3.132812 10.984375 -5.851562 8.984375 -9.4375 C 6.984375 -13.03125 5.984375 -17.347656 5.984375 -22.390625 C 5.984375 -27.046875 6.984375 -30.953125 8.984375 -34.109375 C 10.984375 -37.273438 14.070312 -39.863281 18.25 -41.875 C 22.4375 -43.894531 27.898438 -45.453125 34.640625 -46.546875 C 39.347656 -47.304688 42.925781 -48.140625 45.375 -49.046875 C 47.820312 -49.953125 49.472656 -50.972656 50.328125 -52.109375 C 51.179688 -53.253906 51.609375 -54.707031 51.609375 -56.46875 C 51.609375 -58.976562 50.726562 -60.898438 48.96875 -62.234375 C 47.21875 -63.566406 44.296875 -64.234375 40.203125 -64.234375 C 35.835938 -64.234375 31.679688 -63.257812 27.734375 -61.3125 C 23.785156 -59.363281 20.363281 -56.796875 17.46875 -53.609375 L 16.046875 -53.609375 L 7.765625 -66.078125 C 11.765625 -70.503906 16.640625 -73.953125 22.390625 -76.421875 C 28.140625 -78.890625 34.410156 -80.125 41.203125 -80.125 C 51.609375 -80.125 59.140625 -77.914062 63.796875 -73.5 C 68.460938 -69.082031 70.796875 -62.804688 70.796875 -54.671875 L 70.796875 -20.53125 C 70.796875 -17.007812 72.335938 -15.25 75.421875 -15.25 C 76.609375 -15.25 77.773438 -15.460938 78.921875 -15.890625 L 79.921875 -15.609375 L 81.34375 -1.859375 C 80.25 -1.140625 78.726562 -0.550781 76.78125 -0.09375 C 74.832031 0.351562 72.691406 0.578125 70.359375 0.578125 C 65.660156 0.578125 61.988281 -0.320312 59.34375 -2.125 C 56.707031 -3.9375 54.820312 -6.769531 53.6875 -10.625 L 52.1875 -10.765625 C 48.332031 -2.585938 41.15625 1.5 30.65625 1.5 Z M 36.921875 -13.265625 C 41.484375 -13.265625 45.128906 -14.796875 47.859375 -17.859375 C 50.597656 -20.921875 51.96875 -25.1875 51.96875 -30.65625 L 51.96875 -38.640625 L 50.609375 -38.921875 C 49.421875 -37.972656 47.863281 -37.175781 45.9375 -36.53125 C 44.019531 -35.894531 41.253906 -35.265625 37.640625 -34.640625 C 33.359375 -33.929688 30.28125 -32.707031 28.40625 -30.96875 C 26.53125 -29.238281 25.59375 -26.78125 25.59375 -23.59375 C 25.59375 -20.21875 26.585938 -17.648438 28.578125 -15.890625 C 30.578125 -14.140625 33.359375 -13.265625 36.921875 -13.265625 Z M 36.921875 -13.265625 "/></g></g></g><g fill="#737373" fill-opacity="1"><g transform="translate(891.203517, 345.836313)"><g><path d="M 32.65625 1.5 C 25.570312 1.5 20.164062 -0.410156 16.4375 -4.234375 C 12.707031 -8.066406 10.84375 -13.878906 10.84375 -21.671875 L 10.84375 -110.21875 L 30.578125 -110.21875 L 30.578125 -22.453125 C 30.578125 -17.648438 32.578125 -15.25 36.578125 -15.25 C 37.710938 -15.25 38.921875 -15.441406 40.203125 -15.828125 L 41.203125 -15.546875 L 42.984375 -0.359375 C 41.890625 0.210938 40.441406 0.664062 38.640625 1 C 36.835938 1.332031 34.84375 1.5 32.65625 1.5 Z M 32.65625 1.5 "/></g></g></g><g fill="#737373" fill-opacity="1"><g transform="translate(936.399736, 345.836313)"><g><path d="M 21.171875 -88.046875 C 17.609375 -88.046875 14.707031 -89.125 12.46875 -91.28125 C 10.238281 -93.445312 9.125 -96.238281 9.125 -99.65625 C 9.125 -103.03125 10.238281 -105.800781 12.46875 -107.96875 C 14.707031 -110.132812 17.609375 -111.21875 21.171875 -111.21875 C 23.546875 -111.21875 25.660156 -110.71875 27.515625 -109.71875 C 29.367188 -108.71875 30.804688 -107.347656 31.828125 -105.609375 C 32.847656 -103.878906 33.359375 -101.894531 33.359375 -99.65625 C 33.359375 -97.425781 32.847656 -95.429688 31.828125 -93.671875 C 30.804688 -91.910156 29.367188 -90.53125 27.515625 -89.53125 C 25.660156 -88.539062 23.546875 -88.046875 21.171875 -88.046875 Z M 11.328125 0 L 11.328125 -78.625 L 31.078125 -78.625 L 31.078125 0 Z M 11.328125 0 "/></g></g></g><g fill="#737373" fill-opacity="1"><g transform="translate(978.744459, 345.836313)"><g><path d="M 32.65625 1.5 C 25.570312 1.5 20.164062 -0.410156 16.4375 -4.234375 C 12.707031 -8.066406 10.84375 -13.878906 10.84375 -21.671875 L 10.84375 -110.21875 L 30.578125 -110.21875 L 30.578125 -22.453125 C 30.578125 -17.648438 32.578125 -15.25 36.578125 -15.25 C 37.710938 -15.25 38.921875 -15.441406 40.203125 -15.828125 L 41.203125 -15.546875 L 42.984375 -0.359375 C 41.890625 0.210938 40.441406 0.664062 38.640625 1 C 36.835938 1.332031 34.84375 1.5 32.65625 1.5 Z M 32.65625 1.5 "/></g></g></g></svg>